<svg viewBox="0 0 640 480" xmlns="http://www.w3.org/2000/svg">
<rect fill="#FFFFFF" height="480" opacity="1" stroke="none" width="640" x="0" y="0"/>
<line opacity="0.1" stroke="#000000" x1="112" x2="112" y1="370" y2="10"/>
<line opacity="0.1" stroke="#000000" x1="115" x2="115" y1="370" y2="10"/>
<line opacity="0.1" stroke="#000000" x1="117" x2="117" y1="370" y2="10"/>
<line opacity="0.1" stroke="#000000" x1="120" x2="120" y1="370" y2="10"/>
<line opacity="0.1" stroke="#000000" x1="123" x2="123" y1="370" y2="10"/>
<line opacity="0.1" stroke="#000000" x1="125" x2="125" y1="370" y2="10"/>
<line opacity="0.1" stroke="#000000" x1="128" x2="128" y1="370" y2="10"/>
<line opacity="0.1" stroke="#000000" x1="130" x2="130" y1="370" y2="10"/>
<line opacity="0.1" stroke="#000000" x1="133" x2="133" y1="370" y2="10"/>
<line opacity="0.1" stroke="#000000" x1="136" x2="136" y1="370" y2="10"/>
<line opacity="0.1" stroke="#000000" x1="138" x2="138" y1="370" y2="10"/>
<line opacity="0.1" stroke="#000000" x1="141" x2="141" y1="370" y2="10"/>
<line opacity="0.1" stroke="#000000" x1="143" x2="143" y1="370" y2="10"/>
<line opacity="0.1" stroke="#000000" x1="146" x2="146" y1="370" y2="10"/>
<line opacity="0.1" stroke="#000000" x1="149" x2="149" y1="370" y2="10"/>
<line opacity="0.1" stroke="#000000" x1="151" x2="151" y1="370" y2="10"/>
<line opacity="0.1" stroke="#000000" x1="154" x2="154" y1="370" y2="10"/>
<line opacity="0.1" stroke="#000000" x1="156" x2="156" y1="370" y2="10"/>
<line opacity="0.1" stroke="#000000" x1="159" x2="159" y1="370" y2="10"/>
<line opacity="0.1" stroke="#000000" x1="162" x2="162" y1="370" y2="10"/>
<line opacity="0.1" stroke="#000000" x1="164" x2="164" y1="370" y2="10"/>
<line opacity="0.1" stroke="#000000" x1="167" x2="167" y1="370" y2="10"/>
<line opacity="0.1" stroke="#000000" x1="169" x2="169" y1="370" y2="10"/>
<line opacity="0.1" stroke="#000000" x1="172" x2="172" y1="370" y2="10"/>
<line opacity="0.1" stroke="#000000" x1="175" x2="175" y1="370" y2="10"/>
<line opacity="0.1" stroke="#000000" x1="177" x2="177" y1="370" y2="10"/>
<line opacity="0.1" stroke="#000000" x1="180" x2="180" y1="370" y2="10"/>
<line opacity="0.1" stroke="#000000" x1="182" x2="182" y1="370" y2="10"/>
<line opacity="0.1" stroke="#000000" x1="185" x2="185" y1="370" y2="10"/>
<line opacity="0.1" stroke="#000000" x1="188" x2="188" y1="370" y2="10"/>
<line opacity="0.1" stroke="#000000" x1="190" x2="190" y1="370" y2="10"/>
<line opacity="0.1" stroke="#000000" x1="193" x2="193" y1="370" y2="10"/>
<line opacity="0.1" stroke="#000000" x1="195" x2="195" y1="370" y2="10"/>
<line opacity="0.1" stroke="#000000" x1="198" x2="198" y1="370" y2="10"/>
<line opacity="0.1" stroke="#000000" x1="201" x2="201" y1="370" y2="10"/>
<line opacity="0.1" stroke="#000000" x1="203" x2="203" y1="370" y2="10"/>
<line opacity="0.1" stroke="#000000" x1="206" x2="206" y1="370" y2="10"/>
<line opacity="0.1" stroke="#000000" x1="208" x2="208" y1="370" y2="10"/>
<line opacity="0.1" stroke="#000000" x1="211" x2="211" y1="370" y2="10"/>
<line opacity="0.1" stroke="#000000" x1="214" x2="214" y1="370" y2="10"/>
<line opacity="0.1" stroke="#000000" x1="216" x2="216" y1="370" y2="10"/>
<line opacity="0.1" stroke="#000000" x1="219" x2="219" y1="370" y2="10"/>
<line opacity="0.1" stroke="#000000" x1="221" x2="221" y1="370" y2="10"/>
<line opacity="0.1" stroke="#000000" x1="224" x2="224" y1="370" y2="10"/>
<line opacity="0.1" stroke="#000000" x1="227" x2="227" y1="370" y2="10"/>
<line opacity="0.1" stroke="#000000" x1="229" x2="229" y1="370" y2="10"/>
<line opacity="0.1" stroke="#000000" x1="232" x2="232" y1="370" y2="10"/>
<line opacity="0.1" stroke="#000000" x1="234" x2="234" y1="370" y2="10"/>
<line opacity="0.1" stroke="#000000" x1="237" x2="237" y1="370" y2="10"/>
<line opacity="0.1" stroke="#000000" x1="240" x2="240" y1="370" y2="10"/>
<line opacity="0.1" stroke="#000000" x1="242" x2="242" y1="370" y2="10"/>
<line opacity="0.1" stroke="#000000" x1="245" x2="245" y1="370" y2="10"/>
<line opacity="0.1" stroke="#000000" x1="247" x2="247" y1="370" y2="10"/>
<line opacity="0.1" stroke="#000000" x1="250" x2="250" y1="370" y2="10"/>
<line opacity="0.1" stroke="#000000" x1="253" x2="253" y1="370" y2="10"/>
<line opacity="0.1" stroke="#000000" x1="255" x2="255" y1="370" y2="10"/>
<line opacity="0.1" stroke="#000000" x1="258" x2="258" y1="370" y2="10"/>
<line opacity="0.1" stroke="#000000" x1="260" x2="260" y1="370" y2="10"/>
<line opacity="0.1" stroke="#000000" x1="263" x2="263" y1="370" y2="10"/>
<line opacity="0.1" stroke="#000000" x1="266" x2="266" y1="370" y2="10"/>
<line opacity="0.1" stroke="#000000" x1="268" x2="268" y1="370" y2="10"/>
<line opacity="0.1" stroke="#000000" x1="271" x2="271" y1="370" y2="10"/>
<line opacity="0.1" stroke="#000000" x1="273" x2="273" y1="370" y2="10"/>
<line opacity="0.1" stroke="#000000" x1="276" x2="276" y1="370" y2="10"/>
<line opacity="0.1" stroke="#000000" x1="279" x2="279" y1="370" y2="10"/>
<line opacity="0.1" stroke="#000000" x1="281" x2="281" y1="370" y2="10"/>
<line opacity="0.1" stroke="#000000" x1="284" x2="284" y1="370" y2="10"/>
<line opacity="0.1" stroke="#000000" x1="286" x2="286" y1="370" y2="10"/>
<line opacity="0.1" stroke="#000000" x1="289" x2="289" y1="370" y2="10"/>
<line opacity="0.1" stroke="#000000" x1="292" x2="292" y1="370" y2="10"/>
<line opacity="0.1" stroke="#000000" x1="294" x2="294" y1="370" y2="10"/>
<line opacity="0.1" stroke="#000000" x1="297" x2="297" y1="370" y2="10"/>
<line opacity="0.1" stroke="#000000" x1="299" x2="299" y1="370" y2="10"/>
<line opacity="0.1" stroke="#000000" x1="302" x2="302" y1="370" y2="10"/>
<line opacity="0.1" stroke="#000000" x1="305" x2="305" y1="370" y2="10"/>
<line opacity="0.1" stroke="#000000" x1="307" x2="307" y1="370" y2="10"/>
<line opacity="0.1" stroke="#000000" x1="310" x2="310" y1="370" y2="10"/>
<line opacity="0.1" stroke="#000000" x1="312" x2="312" y1="370" y2="10"/>
<line opacity="0.1" stroke="#000000" x1="315" x2="315" y1="370" y2="10"/>
<line opacity="0.1" stroke="#000000" x1="318" x2="318" y1="370" y2="10"/>
<line opacity="0.1" stroke="#000000" x1="320" x2="320" y1="370" y2="10"/>
<line opacity="0.1" stroke="#000000" x1="323" x2="323" y1="370" y2="10"/>
<line opacity="0.1" stroke="#000000" x1="325" x2="325" y1="370" y2="10"/>
<line opacity="0.1" stroke="#000000" x1="328" x2="328" y1="370" y2="10"/>
<line opacity="0.1" stroke="#000000" x1="331" x2="331" y1="370" y2="10"/>
<line opacity="0.1" stroke="#000000" x1="333" x2="333" y1="370" y2="10"/>
<line opacity="0.1" stroke="#000000" x1="336" x2="336" y1="370" y2="10"/>
<line opacity="0.1" stroke="#000000" x1="338" x2="338" y1="370" y2="10"/>
<line opacity="0.1" stroke="#000000" x1="341" x2="341" y1="370" y2="10"/>
<line opacity="0.1" stroke="#000000" x1="344" x2="344" y1="370" y2="10"/>
<line opacity="0.1" stroke="#000000" x1="346" x2="346" y1="370" y2="10"/>
<line opacity="0.1" stroke="#000000" x1="349" x2="349" y1="370" y2="10"/>
<line opacity="0.1" stroke="#000000" x1="351" x2="351" y1="370" y2="10"/>
<line opacity="0.1" stroke="#000000" x1="354" x2="354" y1="370" y2="10"/>
<line opacity="0.1" stroke="#000000" x1="357" x2="357" y1="370" y2="10"/>
<line opacity="0.1" stroke="#000000" x1="359" x2="359" y1="370" y2="10"/>
<line opacity="0.1" stroke="#000000" x1="362" x2="362" y1="370" y2="10"/>
<line opacity="0.1" stroke="#000000" x1="364" x2="364" y1="370" y2="10"/>
<line opacity="0.1" stroke="#000000" x1="367" x2="367" y1="370" y2="10"/>
<line opacity="0.1" stroke="#000000" x1="370" x2="370" y1="370" y2="10"/>
<line opacity="0.1" stroke="#000000" x1="372" x2="372" y1="370" y2="10"/>
<line opacity="0.1" stroke="#000000" x1="375" x2="375" y1="370" y2="10"/>
<line opacity="0.1" stroke="#000000" x1="377" x2="377" y1="370" y2="10"/>
<line opacity="0.1" stroke="#000000" x1="380" x2="380" y1="370" y2="10"/>
<line opacity="0.1" stroke="#000000" x1="383" x2="383" y1="370" y2="10"/>
<line opacity="0.1" stroke="#000000" x1="385" x2="385" y1="370" y2="10"/>
<line opacity="0.1" stroke="#000000" x1="388" x2="388" y1="370" y2="10"/>
<line opacity="0.1" stroke="#000000" x1="390" x2="390" y1="370" y2="10"/>
<line opacity="0.1" stroke="#000000" x1="393" x2="393" y1="370" y2="10"/>
<line opacity="0.1" stroke="#000000" x1="396" x2="396" y1="370" y2="10"/>
<line opacity="0.1" stroke="#000000" x1="398" x2="398" y1="370" y2="10"/>
<line opacity="0.1" stroke="#000000" x1="401" x2="401" y1="370" y2="10"/>
<line opacity="0.1" stroke="#000000" x1="403" x2="403" y1="370" y2="10"/>
<line opacity="0.1" stroke="#000000" x1="406" x2="406" y1="370" y2="10"/>
<line opacity="0.1" stroke="#000000" x1="409" x2="409" y1="370" y2="10"/>
<line opacity="0.1" stroke="#000000" x1="411" x2="411" y1="370" y2="10"/>
<line opacity="0.1" stroke="#000000" x1="414" x2="414" y1="370" y2="10"/>
<line opacity="0.1" stroke="#000000" x1="416" x2="416" y1="370" y2="10"/>
<line opacity="0.1" stroke="#000000" x1="419" x2="419" y1="370" y2="10"/>
<line opacity="0.1" stroke="#000000" x1="422" x2="422" y1="370" y2="10"/>
<line opacity="0.1" stroke="#000000" x1="424" x2="424" y1="370" y2="10"/>
<line opacity="0.1" stroke="#000000" x1="427" x2="427" y1="370" y2="10"/>
<line opacity="0.1" stroke="#000000" x1="429" x2="429" y1="370" y2="10"/>
<line opacity="0.1" stroke="#000000" x1="432" x2="432" y1="370" y2="10"/>
<line opacity="0.1" stroke="#000000" x1="435" x2="435" y1="370" y2="10"/>
<line opacity="0.1" stroke="#000000" x1="437" x2="437" y1="370" y2="10"/>
<line opacity="0.1" stroke="#000000" x1="440" x2="440" y1="370" y2="10"/>
<line opacity="0.1" stroke="#000000" x1="442" x2="442" y1="370" y2="10"/>
<line opacity="0.1" stroke="#000000" x1="445" x2="445" y1="370" y2="10"/>
<line opacity="0.1" stroke="#000000" x1="448" x2="448" y1="370" y2="10"/>
<line opacity="0.1" stroke="#000000" x1="450" x2="450" y1="370" y2="10"/>
<line opacity="0.1" stroke="#000000" x1="453" x2="453" y1="370" y2="10"/>
<line opacity="0.1" stroke="#000000" x1="455" x2="455" y1="370" y2="10"/>
<line opacity="0.1" stroke="#000000" x1="458" x2="458" y1="370" y2="10"/>
<line opacity="0.1" stroke="#000000" x1="461" x2="461" y1="370" y2="10"/>
<line opacity="0.1" stroke="#000000" x1="463" x2="463" y1="370" y2="10"/>
<line opacity="0.1" stroke="#000000" x1="466" x2="466" y1="370" y2="10"/>
<line opacity="0.1" stroke="#000000" x1="468" x2="468" y1="370" y2="10"/>
<line opacity="0.1" stroke="#000000" x1="471" x2="471" y1="370" y2="10"/>
<line opacity="0.1" stroke="#000000" x1="474" x2="474" y1="370" y2="10"/>
<line opacity="0.1" stroke="#000000" x1="476" x2="476" y1="370" y2="10"/>
<line opacity="0.1" stroke="#000000" x1="479" x2="479" y1="370" y2="10"/>
<line opacity="0.1" stroke="#000000" x1="481" x2="481" y1="370" y2="10"/>
<line opacity="0.1" stroke="#000000" x1="484" x2="484" y1="370" y2="10"/>
<line opacity="0.1" stroke="#000000" x1="487" x2="487" y1="370" y2="10"/>
<line opacity="0.1" stroke="#000000" x1="489" x2="489" y1="370" y2="10"/>
<line opacity="0.1" stroke="#000000" x1="492" x2="492" y1="370" y2="10"/>
<line opacity="0.1" stroke="#000000" x1="494" x2="494" y1="370" y2="10"/>
<line opacity="0.1" stroke="#000000" x1="497" x2="497" y1="370" y2="10"/>
<line opacity="0.1" stroke="#000000" x1="500" x2="500" y1="370" y2="10"/>
<line opacity="0.1" stroke="#000000" x1="502" x2="502" y1="370" y2="10"/>
<line opacity="0.1" stroke="#000000" x1="505" x2="505" y1="370" y2="10"/>
<line opacity="0.1" stroke="#000000" x1="507" x2="507" y1="370" y2="10"/>
<line opacity="0.1" stroke="#000000" x1="510" x2="510" y1="370" y2="10"/>
<line opacity="0.1" stroke="#000000" x1="513" x2="513" y1="370" y2="10"/>
<line opacity="0.1" stroke="#000000" x1="515" x2="515" y1="370" y2="10"/>
<line opacity="0.1" stroke="#000000" x1="518" x2="518" y1="370" y2="10"/>
<line opacity="0.1" stroke="#000000" x1="520" x2="520" y1="370" y2="10"/>
<line opacity="0.1" stroke="#000000" x1="523" x2="523" y1="370" y2="10"/>
<line opacity="0.1" stroke="#000000" x1="526" x2="526" y1="370" y2="10"/>
<line opacity="0.1" stroke="#000000" x1="528" x2="528" y1="370" y2="10"/>
<line opacity="0.1" stroke="#000000" x1="531" x2="531" y1="370" y2="10"/>
<line opacity="0.1" stroke="#000000" x1="533" x2="533" y1="370" y2="10"/>
<line opacity="0.1" stroke="#000000" x1="536" x2="536" y1="370" y2="10"/>
<line opacity="0.1" stroke="#000000" x1="539" x2="539" y1="370" y2="10"/>
<line opacity="0.1" stroke="#000000" x1="541" x2="541" y1="370" y2="10"/>
<line opacity="0.1" stroke="#000000" x1="544" x2="544" y1="370" y2="10"/>
<line opacity="0.1" stroke="#000000" x1="546" x2="546" y1="370" y2="10"/>
<line opacity="0.1" stroke="#000000" x1="549" x2="549" y1="370" y2="10"/>
<line opacity="0.1" stroke="#000000" x1="552" x2="552" y1="370" y2="10"/>
<line opacity="0.1" stroke="#000000" x1="554" x2="554" y1="370" y2="10"/>
<line opacity="0.1" stroke="#000000" x1="557" x2="557" y1="370" y2="10"/>
<line opacity="0.1" stroke="#000000" x1="559" x2="559" y1="370" y2="10"/>
<line opacity="0.1" stroke="#000000" x1="562" x2="562" y1="370" y2="10"/>
<line opacity="0.1" stroke="#000000" x1="565" x2="565" y1="370" y2="10"/>
<line opacity="0.1" stroke="#000000" x1="567" x2="567" y1="370" y2="10"/>
<line opacity="0.1" stroke="#000000" x1="570" x2="570" y1="370" y2="10"/>
<line opacity="0.1" stroke="#000000" x1="572" x2="572" y1="370" y2="10"/>
<line opacity="0.1" stroke="#000000" x1="575" x2="575" y1="370" y2="10"/>
<line opacity="0.1" stroke="#000000" x1="578" x2="578" y1="370" y2="10"/>
<line opacity="0.1" stroke="#000000" x1="580" x2="580" y1="370" y2="10"/>
<line opacity="0.1" stroke="#000000" x1="583" x2="583" y1="370" y2="10"/>
<line opacity="0.1" stroke="#000000" x1="585" x2="585" y1="370" y2="10"/>
<line opacity="0.1" stroke="#000000" x1="588" x2="588" y1="370" y2="10"/>
<line opacity="0.1" stroke="#000000" x1="591" x2="591" y1="370" y2="10"/>
<line opacity="0.1" stroke="#000000" x1="593" x2="593" y1="370" y2="10"/>
<line opacity="0.1" stroke="#000000" x1="596" x2="596" y1="370" y2="10"/>
<line opacity="0.1" stroke="#000000" x1="598" x2="598" y1="370" y2="10"/>
<line opacity="0.1" stroke="#000000" x1="601" x2="601" y1="370" y2="10"/>
<line opacity="0.1" stroke="#000000" x1="604" x2="604" y1="370" y2="10"/>
<line opacity="0.1" stroke="#000000" x1="606" x2="606" y1="370" y2="10"/>
<line opacity="0.1" stroke="#000000" x1="609" x2="609" y1="370" y2="10"/>
<line opacity="0.1" stroke="#000000" x1="611" x2="611" y1="370" y2="10"/>
<line opacity="0.1" stroke="#000000" x1="614" x2="614" y1="370" y2="10"/>
<line opacity="0.1" stroke="#000000" x1="617" x2="617" y1="370" y2="10"/>
<line opacity="0.1" stroke="#000000" x1="619" x2="619" y1="370" y2="10"/>
<line opacity="0.1" stroke="#000000" x1="622" x2="622" y1="370" y2="10"/>
<line opacity="0.1" stroke="#000000" x1="624" x2="624" y1="370" y2="10"/>
<line opacity="0.1" stroke="#000000" x1="627" x2="627" y1="370" y2="10"/>
<line opacity="0.1" stroke="#000000" x1="630" x2="630" y1="370" y2="10"/>
<line opacity="0.1" stroke="#000000" x1="110" x2="630" y1="366" y2="366"/>
<line opacity="0.1" stroke="#000000" x1="110" x2="630" y1="362" y2="362"/>
<line opacity="0.1" stroke="#000000" x1="110" x2="630" y1="359" y2="359"/>
<line opacity="0.1" stroke="#000000" x1="110" x2="630" y1="355" y2="355"/>
<line opacity="0.1" stroke="#000000" x1="110" x2="630" y1="352" y2="352"/>
<line opacity="0.1" stroke="#000000" x1="110" x2="630" y1="348" y2="348"/>
<line opacity="0.1" stroke="#000000" x1="110" x2="630" y1="344" y2="344"/>
<line opacity="0.1" stroke="#000000" x1="110" x2="630" y1="341" y2="341"/>
<line opacity="0.1" stroke="#000000" x1="110" x2="630" y1="337" y2="337"/>
<line opacity="0.1" stroke="#000000" x1="110" x2="630" y1="334" y2="334"/>
<line opacity="0.1" stroke="#000000" x1="110" x2="630" y1="330" y2="330"/>
<line opacity="0.1" stroke="#000000" x1="110" x2="630" y1="326" y2="326"/>
<line opacity="0.1" stroke="#000000" x1="110" x2="630" y1="323" y2="323"/>
<line opacity="0.1" stroke="#000000" x1="110" x2="630" y1="319" y2="319"/>
<line opacity="0.1" stroke="#000000" x1="110" x2="630" y1="316" y2="316"/>
<line opacity="0.1" stroke="#000000" x1="110" x2="630" y1="312" y2="312"/>
<line opacity="0.1" stroke="#000000" x1="110" x2="630" y1="308" y2="308"/>
<line opacity="0.1" stroke="#000000" x1="110" x2="630" y1="305" y2="305"/>
<line opacity="0.1" stroke="#000000" x1="110" x2="630" y1="301" y2="301"/>
<line opacity="0.1" stroke="#000000" x1="110" x2="630" y1="298" y2="298"/>
<line opacity="0.1" stroke="#000000" x1="110" x2="630" y1="294" y2="294"/>
<line opacity="0.1" stroke="#000000" x1="110" x2="630" y1="290" y2="290"/>
<line opacity="0.1" stroke="#000000" x1="110" x2="630" y1="287" y2="287"/>
<line opacity="0.1" stroke="#000000" x1="110" x2="630" y1="283" y2="283"/>
<line opacity="0.1" stroke="#000000" x1="110" x2="630" y1="280" y2="280"/>
<line opacity="0.1" stroke="#000000" x1="110" x2="630" y1="276" y2="276"/>
<line opacity="0.1" stroke="#000000" x1="110" x2="630" y1="272" y2="272"/>
<line opacity="0.1" stroke="#000000" x1="110" x2="630" y1="269" y2="269"/>
<line opacity="0.1" stroke="#000000" x1="110" x2="630" y1="265" y2="265"/>
<line opacity="0.1" stroke="#000000" x1="110" x2="630" y1="262" y2="262"/>
<line opacity="0.1" stroke="#000000" x1="110" x2="630" y1="258" y2="258"/>
<line opacity="0.1" stroke="#000000" x1="110" x2="630" y1="254" y2="254"/>
<line opacity="0.1" stroke="#000000" x1="110" x2="630" y1="251" y2="251"/>
<line opacity="0.1" stroke="#000000" x1="110" x2="630" y1="247" y2="247"/>
<line opacity="0.1" stroke="#000000" x1="110" x2="630" y1="244" y2="244"/>
<line opacity="0.1" stroke="#000000" x1="110" x2="630" y1="240" y2="240"/>
<line opacity="0.1" stroke="#000000" x1="110" x2="630" y1="236" y2="236"/>
<line opacity="0.1" stroke="#000000" x1="110" x2="630" y1="233" y2="233"/>
<line opacity="0.1" stroke="#000000" x1="110" x2="630" y1="229" y2="229"/>
<line opacity="0.1" stroke="#000000" x1="110" x2="630" y1="226" y2="226"/>
<line opacity="0.1" stroke="#000000" x1="110" x2="630" y1="222" y2="222"/>
<line opacity="0.1" stroke="#000000" x1="110" x2="630" y1="218" y2="218"/>
<line opacity="0.1" stroke="#000000" x1="110" x2="630" y1="215" y2="215"/>
<line opacity="0.1" stroke="#000000" x1="110" x2="630" y1="211" y2="211"/>
<line opacity="0.1" stroke="#000000" x1="110" x2="630" y1="208" y2="208"/>
<line opacity="0.1" stroke="#000000" x1="110" x2="630" y1="204" y2="204"/>
<line opacity="0.1" stroke="#000000" x1="110" x2="630" y1="200" y2="200"/>
<line opacity="0.1" stroke="#000000" x1="110" x2="630" y1="197" y2="197"/>
<line opacity="0.1" stroke="#000000" x1="110" x2="630" y1="193" y2="193"/>
<line opacity="0.1" stroke="#000000" x1="110" x2="630" y1="190" y2="190"/>
<line opacity="0.1" stroke="#000000" x1="110" x2="630" y1="186" y2="186"/>
<line opacity="0.1" stroke="#000000" x1="110" x2="630" y1="182" y2="182"/>
<line opacity="0.1" stroke="#000000" x1="110" x2="630" y1="179" y2="179"/>
<line opacity="0.1" stroke="#000000" x1="110" x2="630" y1="175" y2="175"/>
<line opacity="0.1" stroke="#000000" x1="110" x2="630" y1="172" y2="172"/>
<line opacity="0.1" stroke="#000000" x1="110" x2="630" y1="168" y2="168"/>
<line opacity="0.1" stroke="#000000" x1="110" x2="630" y1="164" y2="164"/>
<line opacity="0.1" stroke="#000000" x1="110" x2="630" y1="161" y2="161"/>
<line opacity="0.1" stroke="#000000" x1="110" x2="630" y1="157" y2="157"/>
<line opacity="0.1" stroke="#000000" x1="110" x2="630" y1="154" y2="154"/>
<line opacity="0.1" stroke="#000000" x1="110" x2="630" y1="150" y2="150"/>
<line opacity="0.1" stroke="#000000" x1="110" x2="630" y1="146" y2="146"/>
<line opacity="0.1" stroke="#000000" x1="110" x2="630" y1="143" y2="143"/>
<line opacity="0.1" stroke="#000000" x1="110" x2="630" y1="139" y2="139"/>
<line opacity="0.1" stroke="#000000" x1="110" x2="630" y1="136" y2="136"/>
<line opacity="0.1" stroke="#000000" x1="110" x2="630" y1="132" y2="132"/>
<line opacity="0.1" stroke="#000000" x1="110" x2="630" y1="128" y2="128"/>
<line opacity="0.1" stroke="#000000" x1="110" x2="630" y1="125" y2="125"/>
<line opacity="0.1" stroke="#000000" x1="110" x2="630" y1="121" y2="121"/>
<line opacity="0.1" stroke="#000000" x1="110" x2="630" y1="118" y2="118"/>
<line opacity="0.1" stroke="#000000" x1="110" x2="630" y1="114" y2="114"/>
<line opacity="0.1" stroke="#000000" x1="110" x2="630" y1="110" y2="110"/>
<line opacity="0.1" stroke="#000000" x1="110" x2="630" y1="107" y2="107"/>
<line opacity="0.1" stroke="#000000" x1="110" x2="630" y1="103" y2="103"/>
<line opacity="0.1" stroke="#000000" x1="110" x2="630" y1="100" y2="100"/>
<line opacity="0.1" stroke="#000000" x1="110" x2="630" y1="96" y2="96"/>
<line opacity="0.1" stroke="#000000" x1="110" x2="630" y1="92" y2="92"/>
<line opacity="0.1" stroke="#000000" x1="110" x2="630" y1="89" y2="89"/>
<line opacity="0.1" stroke="#000000" x1="110" x2="630" y1="85" y2="85"/>
<line opacity="0.1" stroke="#000000" x1="110" x2="630" y1="82" y2="82"/>
<line opacity="0.1" stroke="#000000" x1="110" x2="630" y1="78" y2="78"/>
<line opacity="0.1" stroke="#000000" x1="110" x2="630" y1="74" y2="74"/>
<line opacity="0.1" stroke="#000000" x1="110" x2="630" y1="71" y2="71"/>
<line opacity="0.1" stroke="#000000" x1="110" x2="630" y1="67" y2="67"/>
<line opacity="0.1" stroke="#000000" x1="110" x2="630" y1="64" y2="64"/>
<line opacity="0.1" stroke="#000000" x1="110" x2="630" y1="60" y2="60"/>
<line opacity="0.1" stroke="#000000" x1="110" x2="630" y1="56" y2="56"/>
<line opacity="0.1" stroke="#000000" x1="110" x2="630" y1="53" y2="53"/>
<line opacity="0.1" stroke="#000000" x1="110" x2="630" y1="49" y2="49"/>
<line opacity="0.1" stroke="#000000" x1="110" x2="630" y1="46" y2="46"/>
<line opacity="0.1" stroke="#000000" x1="110" x2="630" y1="42" y2="42"/>
<line opacity="0.1" stroke="#000000" x1="110" x2="630" y1="38" y2="38"/>
<line opacity="0.1" stroke="#000000" x1="110" x2="630" y1="35" y2="35"/>
<line opacity="0.1" stroke="#000000" x1="110" x2="630" y1="31" y2="31"/>
<line opacity="0.1" stroke="#000000" x1="110" x2="630" y1="28" y2="28"/>
<line opacity="0.1" stroke="#000000" x1="110" x2="630" y1="24" y2="24"/>
<line opacity="0.1" stroke="#000000" x1="110" x2="630" y1="20" y2="20"/>
<line opacity="0.1" stroke="#000000" x1="110" x2="630" y1="17" y2="17"/>
<line opacity="0.1" stroke="#000000" x1="110" x2="630" y1="13" y2="13"/>
<line opacity="0.1" stroke="#000000" x1="110" x2="630" y1="10" y2="10"/>
<line opacity="0.2" stroke="#000000" x1="136" x2="136" y1="370" y2="10"/>
<line opacity="0.2" stroke="#000000" x1="162" x2="162" y1="370" y2="10"/>
<line opacity="0.2" stroke="#000000" x1="188" x2="188" y1="370" y2="10"/>
<line opacity="0.2" stroke="#000000" x1="214" x2="214" y1="370" y2="10"/>
<line opacity="0.2" stroke="#000000" x1="240" x2="240" y1="370" y2="10"/>
<line opacity="0.2" stroke="#000000" x1="266" x2="266" y1="370" y2="10"/>
<line opacity="0.2" stroke="#000000" x1="292" x2="292" y1="370" y2="10"/>
<line opacity="0.2" stroke="#000000" x1="318" x2="318" y1="370" y2="10"/>
<line opacity="0.2" stroke="#000000" x1="344" x2="344" y1="370" y2="10"/>
<line opacity="0.2" stroke="#000000" x1="370" x2="370" y1="370" y2="10"/>
<line opacity="0.2" stroke="#000000" x1="396" x2="396" y1="370" y2="10"/>
<line opacity="0.2" stroke="#000000" x1="422" x2="422" y1="370" y2="10"/>
<line opacity="0.2" stroke="#000000" x1="448" x2="448" y1="370" y2="10"/>
<line opacity="0.2" stroke="#000000" x1="474" x2="474" y1="370" y2="10"/>
<line opacity="0.2" stroke="#000000" x1="500" x2="500" y1="370" y2="10"/>
<line opacity="0.2" stroke="#000000" x1="526" x2="526" y1="370" y2="10"/>
<line opacity="0.2" stroke="#000000" x1="552" x2="552" y1="370" y2="10"/>
<line opacity="0.2" stroke="#000000" x1="578" x2="578" y1="370" y2="10"/>
<line opacity="0.2" stroke="#000000" x1="604" x2="604" y1="370" y2="10"/>
<line opacity="0.2" stroke="#000000" x1="630" x2="630" y1="370" y2="10"/>
<line opacity="0.2" stroke="#000000" x1="110" x2="630" y1="334" y2="334"/>
<line opacity="0.2" stroke="#000000" x1="110" x2="630" y1="298" y2="298"/>
<line opacity="0.2" stroke="#000000" x1="110" x2="630" y1="262" y2="262"/>
<line opacity="0.2" stroke="#000000" x1="110" x2="630" y1="226" y2="226"/>
<line opacity="0.2" stroke="#000000" x1="110" x2="630" y1="190" y2="190"/>
<line opacity="0.2" stroke="#000000" x1="110" x2="630" y1="154" y2="154"/>
<line opacity="0.2" stroke="#000000" x1="110" x2="630" y1="118" y2="118"/>
<line opacity="0.2" stroke="#000000" x1="110" x2="630" y1="82" y2="82"/>
<line opacity="0.2" stroke="#000000" x1="110" x2="630" y1="46" y2="46"/>
<line opacity="0.2" stroke="#000000" x1="110" x2="630" y1="10" y2="10"/>
<polyline fill="none" opacity="1" points="110,370 630,370 " stroke="#000000"/>
<polyline fill="none" opacity="1" points="136,370 136,375 " stroke="#000000"/>
<text fill="#000000" font-famliy="Arial" font-size="12" opacity="1" x="129" y="388">
1.0
</text>
<polyline fill="none" opacity="1" points="162,370 162,375 " stroke="#000000"/>
<text fill="#000000" font-famliy="Arial" font-size="12" opacity="1" x="155" y="388">
2.0
</text>
<polyline fill="none" opacity="1" points="188,370 188,375 " stroke="#000000"/>
<text fill="#000000" font-famliy="Arial" font-size="12" opacity="1" x="181" y="388">
3.0
</text>
<polyline fill="none" opacity="1" points="214,370 214,375 " stroke="#000000"/>
<text fill="#000000" font-famliy="Arial" font-size="12" opacity="1" x="207" y="388">
4.0
</text>
<polyline fill="none" opacity="1" points="240,370 240,375 " stroke="#000000"/>
<text fill="#000000" font-famliy="Arial" font-size="12" opacity="1" x="233" y="388">
5.0
</text>
<polyline fill="none" opacity="1" points="266,370 266,375 " stroke="#000000"/>
<text fill="#000000" font-famliy="Arial" font-size="12" opacity="1" x="259" y="388">
6.0
</text>
<polyline fill="none" opacity="1" points="292,370 292,375 " stroke="#000000"/>
<text fill="#000000" font-famliy="Arial" font-size="12" opacity="1" x="285" y="388">
7.0
</text>
<polyline fill="none" opacity="1" points="318,370 318,375 " stroke="#000000"/>
<text fill="#000000" font-famliy="Arial" font-size="12" opacity="1" x="311" y="388">
8.0
</text>
<polyline fill="none" opacity="1" points="344,370 344,375 " stroke="#000000"/>
<text fill="#000000" font-famliy="Arial" font-size="12" opacity="1" x="337" y="388">
9.0
</text>
<polyline fill="none" opacity="1" points="370,370 370,375 " stroke="#000000"/>
<text fill="#000000" font-famliy="Arial" font-size="12" opacity="1" x="360" y="388">
10.0
</text>
<polyline fill="none" opacity="1" points="396,370 396,375 " stroke="#000000"/>
<text fill="#000000" font-famliy="Arial" font-size="12" opacity="1" x="386" y="388">
11.0
</text>
<polyline fill="none" opacity="1" points="422,370 422,375 " stroke="#000000"/>
<text fill="#000000" font-famliy="Arial" font-size="12" opacity="1" x="412" y="388">
12.0
</text>
<polyline fill="none" opacity="1" points="448,370 448,375 " stroke="#000000"/>
<text fill="#000000" font-famliy="Arial" font-size="12" opacity="1" x="438" y="388">
13.0
</text>
<polyline fill="none" opacity="1" points="474,370 474,375 " stroke="#000000"/>
<text fill="#000000" font-famliy="Arial" font-size="12" opacity="1" x="464" y="388">
14.0
</text>
<polyline fill="none" opacity="1" points="500,370 500,375 " stroke="#000000"/>
<text fill="#000000" font-famliy="Arial" font-size="12" opacity="1" x="490" y="388">
15.0
</text>
<polyline fill="none" opacity="1" points="526,370 526,375 " stroke="#000000"/>
<text fill="#000000" font-famliy="Arial" font-size="12" opacity="1" x="516" y="388">
16.0
</text>
<polyline fill="none" opacity="1" points="552,370 552,375 " stroke="#000000"/>
<text fill="#000000" font-famliy="Arial" font-size="12" opacity="1" x="542" y="388">
17.0
</text>
<polyline fill="none" opacity="1" points="578,370 578,375 " stroke="#000000"/>
<text fill="#000000" font-famliy="Arial" font-size="12" opacity="1" x="568" y="388">
18.0
</text>
<polyline fill="none" opacity="1" points="604,370 604,375 " stroke="#000000"/>
<text fill="#000000" font-famliy="Arial" font-size="12" opacity="1" x="594" y="388">
19.0
</text>
<polyline fill="none" opacity="1" points="110,10 110,370 " stroke="#000000"/>
<text fill="#000000" font-famliy="Arial" font-size="12" opacity="1" x="43" y="338">
10000000.0
</text>
<polyline fill="none" opacity="1" points="105,334 110,334 " stroke="#000000"/>
<text fill="#000000" font-famliy="Arial" font-size="12" opacity="1" x="43" y="302">
20000000.0
</text>
<polyline fill="none" opacity="1" points="105,298 110,298 " stroke="#000000"/>
<text fill="#000000" font-famliy="Arial" font-size="12" opacity="1" x="43" y="266">
30000000.0
</text>
<polyline fill="none" opacity="1" points="105,262 110,262 " stroke="#000000"/>
<text fill="#000000" font-famliy="Arial" font-size="12" opacity="1" x="43" y="230">
40000000.0
</text>
<polyline fill="none" opacity="1" points="105,226 110,226 " stroke="#000000"/>
<text fill="#000000" font-famliy="Arial" font-size="12" opacity="1" x="43" y="194">
50000000.0
</text>
<polyline fill="none" opacity="1" points="105,190 110,190 " stroke="#000000"/>
<text fill="#000000" font-famliy="Arial" font-size="12" opacity="1" x="43" y="158">
60000000.0
</text>
<polyline fill="none" opacity="1" points="105,154 110,154 " stroke="#000000"/>
<text fill="#000000" font-famliy="Arial" font-size="12" opacity="1" x="43" y="122">
70000000.0
</text>
<polyline fill="none" opacity="1" points="105,118 110,118 " stroke="#000000"/>
<text fill="#000000" font-famliy="Arial" font-size="12" opacity="1" x="43" y="86">
80000000.0
</text>
<polyline fill="none" opacity="1" points="105,82 110,82 " stroke="#000000"/>
<text fill="#000000" font-famliy="Arial" font-size="12" opacity="1" x="43" y="50">
90000000.0
</text>
<polyline fill="none" opacity="1" points="105,46 110,46 " stroke="#000000"/>
<text fill="#000000" font-famliy="Arial" font-size="12" opacity="1" x="37" y="14">
100000000.0
</text>
<polyline fill="none" opacity="1" points="105,10 110,10 " stroke="#000000"/>
<polyline fill="none" opacity="1" points="110,333 110,333 110,333 110,333 111,333 111,333 111,333 111,333 112,333 112,333 112,333 112,333 113,333 113,333 113,333 113,333 114,333 114,333 114,333 114,333 115,333 115,333 115,333 115,333 116,333 116,333 116,332 117,332 117,332 117,332 117,332 118,332 118,332 118,332 118,332 119,332 119,332 119,332 119,332 120,332 120,332 120,332 120,332 121,332 121,332 121,332 121,332 122,332 122,332 122,332 123,332 123,331 123,331 123,331 124,331 124,331 124,331 124,331 125,331 125,331 125,331 125,331 126,331 126,331 126,331 126,331 127,331 127,331 127,331 127,331 128,331 128,331 128,331 128,331 129,331 129,331 129,330 130,330 130,330 130,330 130,330 131,330 131,330 131,330 131,330 132,330 132,330 132,330 132,330 133,330 133,330 133,330 133,330 134,330 134,330 134,330 134,330 135,330 135,330 135,330 136,329 136,329 136,329 136,329 137,329 137,329 137,329 137,329 138,329 138,329 138,329 138,329 139,329 139,329 139,329 139,329 140,329 140,329 140,329 140,329 141,329 141,329 141,329 141,328 142,328 142,328 142,328 143,328 143,328 143,328 143,328 144,328 144,328 144,328 144,328 145,328 145,328 145,328 145,328 146,328 146,328 146,328 146,328 147,328 147,328 147,328 147,327 148,327 148,327 148,327 149,327 149,327 149,327 149,327 150,327 150,327 150,327 150,327 151,327 151,327 151,327 151,327 152,327 152,327 152,327 152,327 153,327 153,327 153,327 153,326 154,326 154,326 154,326 154,326 155,326 155,326 155,326 156,326 156,326 156,326 156,326 157,326 157,326 157,326 157,326 158,326 158,326 158,326 158,326 159,326 159,326 159,325 159,325 160,325 160,325 160,325 160,325 161,325 161,325 161,325 162,325 162,325 162,325 162,325 163,325 163,325 163,325 163,325 164,325 164,325 164,325 164,325 165,324 165,324 165,324 165,324 166,324 166,324 166,324 166,324 167,324 167,324 167,324 167,324 168,324 168,324 168,324 169,324 169,324 169,324 169,324 170,324 170,324 170,323 170,323 171,323 171,323 171,323 171,323 172,323 172,323 172,323 172,323 173,323 173,323 173,323 173,323 174,323 174,323 174,323 175,323 175,323 175,323 175,323 176,322 176,322 176,322 176,322 177,322 177,322 177,322 177,322 178,322 178,322 178,322 178,322 179,322 179,322 179,322 179,322 180,322 180,322 180,322 180,322 181,321 181,321 181,321 182,321 182,321 182,321 182,321 183,321 183,321 183,321 183,321 184,321 184,321 184,321 184,321 185,321 185,321 185,321 185,321 186,320 186,320 186,320 186,320 187,320 187,320 187,320 188,320 188,320 188,320 188,320 189,320 189,320 189,320 189,320 190,320 190,320 190,320 190,320 191,320 191,319 191,319 191,319 192,319 192,319 192,319 192,319 193,319 193,319 193,319 193,319 194,319 194,319 194,319 195,319 195,319 195,319 195,319 196,318 196,318 196,318 196,318 197,318 197,318 197,318 197,318 198,318 198,318 198,318 198,318 199,318 199,318 199,318 199,318 200,318 200,318 200,318 201,317 201,317 201,317 201,317 202,317 202,317 202,317 202,317 203,317 203,317 203,317 203,317 204,317 204,317 204,317 204,317 205,317 205,317 205,316 205,316 206,316 206,316 206,316 206,316 207,316 207,316 207,316 208,316 208,316 208,316 208,316 209,316 209,316 209,316 209,316 210,316 210,315 210,315 210,315 211,315 211,315 211,315 211,315 212,315 212,315 212,315 212,315 213,315 213,315 213,315 214,315 214,315 214,315 214,314 215,314 215,314 215,314 215,314 216,314 216,314 216,314 216,314 217,314 217,314 217,314 217,314 218,314 218,314 218,314 218,314 219,314 219,313 219,313 219,313 220,313 220,313 220,313 221,313 221,313 221,313 221,313 222,313 222,313 222,313 222,313 223,313 223,313 223,312 223,312 224,312 224,312 224,312 224,312 225,312 225,312 225,312 225,312 226,312 226,312 226,312 227,312 227,312 227,312 227,312 228,311 228,311 228,311 228,311 229,311 229,311 229,311 229,311 230,311 230,311 230,311 230,311 231,311 231,311 231,311 231,311 232,310 232,310 232,310 232,310 233,310 233,310 233,310 234,310 234,310 234,310 234,310 235,310 235,310 235,310 235,310 236,310 236,309 236,309 236,309 237,309 237,309 237,309 237,309 238,309 238,309 238,309 238,309 239,309 239,309 239,309 240,309 240,309 240,308 240,308 241,308 241,308 241,308 241,308 242,308 242,308 242,308 242,308 243,308 243,308 243,308 243,308 244,308 244,308 244,307 244,307 245,307 245,307 245,307 245,307 246,307 246,307 246,307 247,307 247,307 247,307 247,307 248,307 248,307 248,306 248,306 249,306 249,306 249,306 249,306 250,306 250,306 250,306 250,306 251,306 251,306 251,306 251,306 252,306 252,305 252,305 253,305 253,305 253,305 253,305 254,305 254,305 254,305 254,305 255,305 255,305 255,305 255,305 256,305 256,304 256,304 256,304 257,304 257,304 257,304 257,304 258,304 258,304 258,304 258,304 259,304 259,304 259,304 260,303 260,303 260,303 260,303 261,303 261,303 261,303 261,303 262,303 262,303 262,303 262,303 263,303 263,303 263,302 263,302 264,302 264,302 264,302 264,302 265,302 265,302 265,302 266,302 266,302 266,302 266,302 267,302 267,302 267,301 267,301 268,301 268,301 268,301 268,301 269,301 269,301 269,301 269,301 270,301 270,301 270,301 270,300 271,300 271,300 271,300 271,300 272,300 272,300 272,300 273,300 273,300 273,300 273,300 274,300 274,300 274,299 274,299 275,299 275,299 275,299 275,299 276,299 276,299 276,299 276,299 277,299 277,299 277,299 277,299 278,298 278,298 278,298 279,298 279,298 279,298 279,298 280,298 280,298 280,298 280,298 281,298 281,298 281,297 281,297 282,297 282,297 282,297 282,297 283,297 283,297 283,297 283,297 284,297 284,297 284,297 284,296 285,296 285,296 285,296 286,296 286,296 286,296 286,296 287,296 287,296 287,296 287,296 288,296 288,295 288,295 288,295 289,295 289,295 289,295 289,295 290,295 290,295 290,295 290,295 291,295 291,295 291,294 292,294 292,294 292,294 292,294 293,294 293,294 293,294 293,294 294,294 294,294 294,294 294,294 295,293 295,293 295,293 295,293 296,293 296,293 296,293 296,293 297,293 297,293 297,293 297,293 298,292 298,292 298,292 299,292 299,292 299,292 299,292 300,292 300,292 300,292 300,292 301,292 301,291 301,291 301,291 302,291 302,291 302,291 302,291 303,291 303,291 303,291 303,291 304,291 304,290 304,290 305,290 305,290 305,290 305,290 306,290 306,290 306,290 306,290 307,290 307,290 307,289 307,289 308,289 308,289 308,289 308,289 309,289 309,289 309,289 309,289 310,289 310,289 310,288 310,288 311,288 311,288 311,288 312,288 312,288 312,288 312,288 313,288 313,288 313,288 313,287 314,287 314,287 314,287 314,287 315,287 315,287 315,287 315,287 316,287 316,287 316,286 316,286 317,286 317,286 317,286 318,286 318,286 318,286 318,286 319,286 319,286 319,286 319,285 320,285 320,285 320,285 320,285 321,285 321,285 321,285 321,285 322,285 322,285 322,284 322,284 323,284 323,284 323,284 323,284 324,284 324,284 324,284 325,284 325,284 325,283 325,283 326,283 326,283 326,283 326,283 327,283 327,283 327,283 327,283 328,283 328,282 328,282 328,282 329,282 329,282 329,282 329,282 330,282 330,282 330,282 331,282 331,281 331,281 331,281 332,281 332,281 332,281 332,281 333,281 333,281 333,281 333,281 334,280 334,280 334,280 334,280 335,280 335,280 335,280 335,280 336,280 336,280 336,280 336,279 337,279 337,279 337,279 338,279 338,279 338,279 338,279 339,279 339,279 339,278 339,278 340,278 340,278 340,278 340,278 341,278 341,278 341,278 341,278 342,278 342,277 342,277 342,277 343,277 343,277 343,277 344,277 344,277 344,277 344,277 345,276 345,276 345,276 345,276 346,276 346,276 346,276 346,276 347,276 347,276 347,275 347,275 348,275 348,275 348,275 348,275 349,275 349,275 349,275 349,275 350,274 350,274 350,274 351,274 351,274 351,274 351,274 352,274 352,274 352,274 352,273 353,273 353,273 353,273 353,273 354,273 354,273 354,273 354,273 355,273 355,272 355,272 355,272 356,272 356,272 356,272 357,272 357,272 357,272 357,272 358,271 358,271 358,271 358,271 359,271 359,271 359,271 359,271 360,271 360,270 360,270 360,270 361,270 361,270 361,270 361,270 362,270 362,270 362,270 362,269 363,269 363,269 363,269 364,269 364,269 364,269 364,269 365,269 365,269 365,268 365,268 366,268 366,268 366,268 366,268 367,268 367,268 367,268 367,267 368,267 368,267 368,267 368,267 369,267 369,267 369,267 370,267 370,266 370,266 370,266 371,266 371,266 371,266 371,266 372,266 372,266 372,265 372,265 373,265 373,265 373,265 373,265 374,265 374,265 374,265 374,265 375,264 375,264 375,264 375,264 376,264 376,264 376,264 377,264 377,264 377,263 377,263 378,263 378,263 378,263 378,263 379,263 379,263 379,262 379,262 380,262 380,262 380,262 380,262 381,262 381,262 381,262 381,261 382,261 382,261 382,261 383,261 383,261 383,261 383,261 384,261 384,260 384,260 384,260 385,260 385,260 385,260 385,260 386,260 386,260 386,259 386,259 387,259 387,259 387,259 387,259 388,259 388,259 388,258 388,258 389,258 389,258 389,258 390,258 390,258 390,258 390,258 391,257 391,257 391,257 391,257 392,257 392,257 392,257 392,257 393,256 393,256 393,256 393,256 394,256 394,256 394,256 394,256 395,256 395,255 395,255 396,255 396,255 396,255 396,255 397,255 397,255 397,254 397,254 398,254 398,254 398,254 398,254 399,254 399,254 399,253 399,253 400,253 400,253 400,253 400,253 401,253 401,253 401,253 401,252 402,252 402,252 402,252 403,252 403,252 403,252 403,252 404,251 404,251 404,251 404,251 405,251 405,251 405,251 405,251 406,250 406,250 406,250 406,250 407,250 407,250 407,250 407,250 408,249 408,249 408,249 409,249 409,249 409,249 409,249 410,249 410,248 410,248 410,248 411,248 411,248 411,248 411,248 412,248 412,247 412,247 412,247 413,247 413,247 413,247 413,247 414,246 414,246 414,246 414,246 415,246 415,246 415,246 416,246 416,245 416,245 416,245 417,245 417,245 417,245 417,245 418,245 418,244 418,244 418,244 419,244 419,244 419,244 419,244 420,243 420,243 420,243 420,243 421,243 421,243 421,243 422,243 422,242 422,242 422,242 423,242 423,242 423,242 423,242 424,241 424,241 424,241 424,241 425,241 425,241 425,241 425,241 426,240 426,240 426,240 426,240 427,240 427,240 427,240 427,239 428,239 428,239 428,239 429,239 429,239 429,239 429,238 430,238 430,238 430,238 430,238 431,238 431,238 431,238 431,237 432,237 432,237 432,237 432,237 433,237 433,237 433,236 433,236 434,236 434,236 434,236 435,236 435,236 435,235 435,235 436,235 436,235 436,235 436,235 437,235 437,234 437,234 437,234 438,234 438,234 438,234 438,234 439,233 439,233 439,233 439,233 440,233 440,233 440,233 440,232 441,232 441,232 441,232 442,232 442,232 442,232 442,231 443,231 443,231 443,231 443,231 444,231 444,231 444,230 444,230 445,230 445,230 445,230 445,230 446,230 446,229 446,229 446,229 447,229 447,229 447,229 448,228 448,228 448,228 448,228 449,228 449,228 449,228 449,227 450,227 450,227 450,227 450,227 451,227 451,227 451,226 451,226 452,226 452,226 452,226 452,226 453,225 453,225 453,225 453,225 454,225 454,225 454,225 455,224 455,224 455,224 455,224 456,224 456,224 456,224 456,223 457,223 457,223 457,223 457,223 458,223 458,222 458,222 458,222 459,222 459,222 459,222 459,222 460,221 460,221 460,221 461,221 461,221 461,221 461,220 462,220 462,220 462,220 462,220 463,220 463,219 463,219 463,219 464,219 464,219 464,219 464,219 465,218 465,218 465,218 465,218 466,218 466,218 466,217 466,217 467,217 467,217 467,217 468,217 468,216 468,216 468,216 469,216 469,216 469,216 469,215 470,215 470,215 470,215 470,215 471,215 471,215 471,214 471,214 472,214 472,214 472,214 472,214 473,213 473,213 473,213 474,213 474,213 474,213 474,212 475,212 475,212 475,212 475,212 476,212 476,211 476,211 476,211 477,211 477,211 477,211 477,210 478,210 478,210 478,210 478,210 479,210 479,209 479,209 479,209 480,209 480,209 480,209 481,208 481,208 481,208 481,208 482,208 482,208 482,207 482,207 483,207 483,207 483,207 483,207 484,206 484,206 484,206 484,206 485,206 485,205 485,205 485,205 486,205 486,205 486,205 487,204 487,204 487,204 487,204 488,204 488,204 488,203 488,203 489,203 489,203 489,203 489,203 490,202 490,202 490,202 490,202 491,202 491,201 491,201 491,201 492,201 492,201 492,201 492,200 493,200 493,200 493,200 494,200 494,200 494,199 494,199 495,199 495,199 495,199 495,198 496,198 496,198 496,198 496,198 497,198 497,197 497,197 497,197 498,197 498,197 498,196 498,196 499,196 499,196 499,196 500,196 500,195 500,195 500,195 501,195 501,195 501,194 501,194 502,194 502,194 502,194 502,194 503,193 503,193 503,193 503,193 504,193 504,192 504,192 504,192 505,192 505,192 505,191 505,191 506,191 506,191 506,191 507,191 507,190 507,190 507,190 508,190 508,190 508,189 508,189 509,189 509,189 509,189 509,188 510,188 510,188 510,188 510,188 511,188 511,187 511,187 511,187 512,187 512,187 512,186 513,186 513,186 513,186 513,186 514,185 514,185 514,185 514,185 515,185 515,184 515,184 515,184 516,184 516,184 516,183 516,183 517,183 517,183 517,183 517,182 518,182 518,182 518,182 518,182 519,182 519,181 519,181 520,181 520,181 520,181 520,180 521,180 521,180 521,180 521,180 522,179 522,179 522,179 522,179 523,179 523,178 523,178 523,178 524,178 524,178 524,177 524,177 525,177 525,177 525,177 526,176 526,176 526,176 526,176 527,175 527,175 527,175 527,175 528,175 528,174 528,174 528,174 529,174 529,174 529,173 529,173 530,173 530,173 530,173 530,172 531,172 531,172 531,172 531,172 532,171 532,171 532,171 533,171 533,171 533,170 533,170 534,170 534,170 534,170 534,169 535,169 535,169 535,169 535,168 536,168 536,168 536,168 536,168 537,167 537,167 537,167 537,167 538,167 538,166 538,166 539,166 539,166 539,165 539,165 540,165 540,165 540,165 540,164 541,164 541,164 541,164 541,164 542,163 542,163 542,163 542,163 543,162 543,162 543,162 543,162 544,162 544,161 544,161 544,161 545,161 545,160 545,160 546,160 546,160 546,160 546,159 547,159 547,159 547,159 547,159 548,158 548,158 548,158 548,158 549,157 549,157 549,157 549,157 550,157 550,156 550,156 550,156 551,156 551,155 551,155 552,155 552,155 552,154 552,154 553,154 553,154 553,154 553,153 554,153 554,153 554,153 554,152 555,152 555,152 555,152 555,152 556,151 556,151 556,151 556,151 557,150 557,150 557,150 557,150 558,149 558,149 558,149 559,149 559,149 559,148 559,148 560,148 560,148 560,147 560,147 561,147 561,147 561,146 561,146 562,146 562,146 562,145 562,145 563,145 563,145 563,145 563,144 564,144 564,144 564,144 565,143 565,143 565,143 565,143 566,142 566,142 566,142 566,142 567,141 567,141 567,141 567,141 568,141 568,140 568,140 568,140 569,140 569,139 569,139 569,139 570,139 570,138 570,138 570,138 571,138 571,137 571,137 572,137 572,137 572,136 572,136 573,136 573,136 573,135 573,135 574,135 574,135 574,134 574,134 575,134 575,134 575,133 575,133 576,133 576,133 576,132 576,132 577,132 577,132 577,131 578,131 578,131 578,131 578,130 579,130 579,130 579,130 579,129 580,129 580,129 580,129 580,128 581,128 581,128 581,128 581,127 582,127 582,127 582,127 582,126 583,126 583,126 583,126 583,125 584,125 584,125 584,125 585,124 585,124 585,124 585,124 586,123 586,123 586,123 586,123 587,122 587,122 587,122 587,121 588,121 588,121 588,121 588,120 589,120 589,120 589,120 589,119 590,119 590,119 590,119 591,118 591,118 591,118 591,118 592,117 592,117 592,117 592,116 593,116 593,116 593,116 593,115 594,115 594,115 594,115 594,114 595,114 595,114 595,114 595,113 596,113 596,113 596,112 596,112 597,112 597,112 597,111 598,111 598,111 598,111 598,110 599,110 599,110 599,110 599,109 600,109 600,109 600,108 600,108 601,108 601,108 601,107 601,107 602,107 602,106 602,106 602,106 603,106 603,105 603,105 604,105 604,105 604,104 604,104 605,104 605,103 605,103 605,103 606,103 606,102 606,102 606,102 607,101 607,101 607,101 607,101 608,100 608,100 608,100 608,99 609,99 609,99 609,99 609,98 610,98 610,98 610,97 611,97 611,97 611,97 611,96 612,96 612,96 612,95 612,95 613,95 613,95 613,94 613,94 614,94 614,93 614,93 614,93 615,93 615,92 615,92 615,92 616,91 616,91 616,91 617,91 617,90 617,90 617,90 618,89 618,89 618,89 618,89 619,88 619,88 619,88 619,87 620,87 620,87 620,86 620,86 621,86 621,86 621,85 621,85 622,85 622,84 622,84 622,84 623,83 623,83 623,83 624,83 624,82 624,82 624,82 625,81 625,81 625,81 625,80 626,80 626,80 626,80 626,79 627,79 627,79 627,78 627,78 628,78 628,77 628,77 628,77 629,76 629,76 629,76 " stroke="#FF0000"/>
<polyline fill="none" opacity="1" points="110,369 110,369 110,369 110,369 111,369 111,369 111,369 111,369 112,369 112,369 112,369 112,369 113,369 113,369 113,369 113,369 114,369 114,369 114,369 114,369 115,369 115,369 115,369 115,369 116,369 116,369 116,368 117,368 117,368 117,368 117,368 118,368 118,368 118,368 118,368 119,368 119,368 119,368 119,368 120,368 120,368 120,368 120,368 121,368 121,368 121,368 121,368 122,368 122,368 122,368 123,368 123,367 123,367 123,367 124,367 124,367 124,367 124,367 125,367 125,367 125,367 125,367 126,367 126,367 126,367 126,367 127,367 127,367 127,367 127,367 128,367 128,367 128,367 128,367 129,367 129,367 129,366 130,366 130,366 130,366 130,366 131,366 131,366 131,366 131,366 132,366 132,366 132,366 132,366 133,366 133,366 133,366 133,366 134,366 134,366 134,366 134,366 135,366 135,366 135,366 136,365 136,365 136,365 136,365 137,365 137,365 137,365 137,365 138,365 138,365 138,365 138,365 139,365 139,365 139,365 139,365 140,365 140,365 140,365 140,365 141,365 141,365 141,365 141,364 142,364 142,364 142,364 143,364 143,364 143,364 143,364 144,364 144,364 144,364 144,364 145,364 145,364 145,364 145,364 146,364 146,364 146,364 146,364 147,364 147,364 147,364 147,363 148,363 148,363 148,363 149,363 149,363 149,363 149,363 150,363 150,363 150,363 150,363 151,363 151,363 151,363 151,363 152,363 152,363 152,363 152,363 153,363 153,363 153,363 153,362 154,362 154,362 154,362 154,362 155,362 155,362 155,362 156,362 156,362 156,362 156,362 157,362 157,362 157,362 157,362 158,362 158,362 158,362 158,362 159,362 159,362 159,361 159,361 160,361 160,361 160,361 160,361 161,361 161,361 161,361 162,361 162,361 162,361 162,361 163,361 163,361 163,361 163,361 164,361 164,361 164,361 164,361 165,360 165,360 165,360 165,360 166,360 166,360 166,360 166,360 167,360 167,360 167,360 167,360 168,360 168,360 168,360 169,360 169,360 169,360 169,360 170,360 170,360 170,359 170,359 171,359 171,359 171,359 171,359 172,359 172,359 172,359 172,359 173,359 173,359 173,359 173,359 174,359 174,359 174,359 175,359 175,359 175,359 175,359 176,358 176,358 176,358 176,358 177,358 177,358 177,358 177,358 178,358 178,358 178,358 178,358 179,358 179,358 179,358 179,358 180,358 180,358 180,358 180,358 181,357 181,357 181,357 182,357 182,357 182,357 182,357 183,357 183,357 183,357 183,357 184,357 184,357 184,357 184,357 185,357 185,357 185,357 185,357 186,356 186,356 186,356 186,356 187,356 187,356 187,356 188,356 188,356 188,356 188,356 189,356 189,356 189,356 189,356 190,356 190,356 190,356 190,356 191,356 191,355 191,355 191,355 192,355 192,355 192,355 192,355 193,355 193,355 193,355 193,355 194,355 194,355 194,355 195,355 195,355 195,355 195,355 196,354 196,354 196,354 196,354 197,354 197,354 197,354 197,354 198,354 198,354 198,354 198,354 199,354 199,354 199,354 199,354 200,354 200,354 200,354 201,353 201,353 201,353 201,353 202,353 202,353 202,353 202,353 203,353 203,353 203,353 203,353 204,353 204,353 204,353 204,353 205,353 205,353 205,352 205,352 206,352 206,352 206,352 206,352 207,352 207,352 207,352 208,352 208,352 208,352 208,352 209,352 209,352 209,352 209,352 210,352 210,351 210,351 210,351 211,351 211,351 211,351 211,351 212,351 212,351 212,351 212,351 213,351 213,351 213,351 214,351 214,351 214,351 214,350 215,350 215,350 215,350 215,350 216,350 216,350 216,350 216,350 217,350 217,350 217,350 217,350 218,350 218,350 218,350 218,350 219,350 219,349 219,349 219,349 220,349 220,349 220,349 221,349 221,349 221,349 221,349 222,349 222,349 222,349 222,349 223,349 223,349 223,348 223,348 224,348 224,348 224,348 224,348 225,348 225,348 225,348 225,348 226,348 226,348 226,348 227,348 227,348 227,348 227,348 228,347 228,347 228,347 228,347 229,347 229,347 229,347 229,347 230,347 230,347 230,347 230,347 231,347 231,347 231,347 231,347 232,346 232,346 232,346 232,346 233,346 233,346 233,346 234,346 234,346 234,346 234,346 235,346 235,346 235,346 235,346 236,346 236,345 236,345 236,345 237,345 237,345 237,345 237,345 238,345 238,345 238,345 238,345 239,345 239,345 239,345 240,345 240,345 240,344 240,344 241,344 241,344 241,344 241,344 242,344 242,344 242,344 242,344 243,344 243,344 243,344 243,344 244,344 244,344 244,343 244,343 245,343 245,343 245,343 245,343 246,343 246,343 246,343 247,343 247,343 247,343 247,343 248,343 248,343 248,342 248,342 249,342 249,342 249,342 249,342 250,342 250,342 250,342 250,342 251,342 251,342 251,342 251,342 252,342 252,341 252,341 253,341 253,341 253,341 253,341 254,341 254,341 254,341 254,341 255,341 255,341 255,341 255,341 256,341 256,340 256,340 256,340 257,340 257,340 257,340 257,340 258,340 258,340 258,340 258,340 259,340 259,340 259,340 260,339 260,339 260,339 260,339 261,339 261,339 261,339 261,339 262,339 262,339 262,339 262,339 263,339 263,339 263,338 263,338 264,338 264,338 264,338 264,338 265,338 265,338 265,338 266,338 266,338 266,338 266,338 267,338 267,338 267,337 267,337 268,337 268,337 268,337 268,337 269,337 269,337 269,337 269,337 270,337 270,337 270,337 270,336 271,336 271,336 271,336 271,336 272,336 272,336 272,336 273,336 273,336 273,336 273,336 274,336 274,336 274,335 274,335 275,335 275,335 275,335 275,335 276,335 276,335 276,335 276,335 277,335 277,335 277,335 277,335 278,334 278,334 278,334 279,334 279,334 279,334 279,334 280,334 280,334 280,334 280,334 281,334 281,334 281,333 281,333 282,333 282,333 282,333 282,333 283,333 283,333 283,333 283,333 284,333 284,333 284,333 284,332 285,332 285,332 285,332 286,332 286,332 286,332 286,332 287,332 287,332 287,332 287,332 288,332 288,331 288,331 288,331 289,331 289,331 289,331 289,331 290,331 290,331 290,331 290,331 291,331 291,331 291,330 292,330 292,330 292,330 292,330 293,330 293,330 293,330 293,330 294,330 294,330 294,330 294,330 295,329 295,329 295,329 295,329 296,329 296,329 296,329 296,329 297,329 297,329 297,329 297,329 298,328 298,328 298,328 299,328 299,328 299,328 299,328 300,328 300,328 300,328 300,328 301,328 301,327 301,327 301,327 302,327 302,327 302,327 302,327 303,327 303,327 303,327 303,327 304,327 304,326 304,326 305,326 305,326 305,326 305,326 306,326 306,326 306,326 306,326 307,326 307,326 307,325 307,325 308,325 308,325 308,325 308,325 309,325 309,325 309,325 309,325 310,325 310,325 310,324 310,324 311,324 311,324 311,324 312,324 312,324 312,324 312,324 313,324 313,324 313,324 313,323 314,323 314,323 314,323 314,323 315,323 315,323 315,323 315,323 316,323 316,323 316,322 316,322 317,322 317,322 317,322 318,322 318,322 318,322 318,322 319,322 319,322 319,322 319,321 320,321 320,321 320,321 320,321 321,321 321,321 321,321 321,321 322,321 322,321 322,320 322,320 323,320 323,320 323,320 323,320 324,320 324,320 324,320 325,320 325,320 325,319 325,319 326,319 326,319 326,319 326,319 327,319 327,319 327,319 327,319 328,319 328,318 328,318 328,318 329,318 329,318 329,318 329,318 330,318 330,318 330,318 331,318 331,317 331,317 331,317 332,317 332,317 332,317 332,317 333,317 333,317 333,317 333,317 334,316 334,316 334,316 334,316 335,316 335,316 335,316 335,316 336,316 336,316 336,316 336,315 337,315 337,315 337,315 338,315 338,315 338,315 338,315 339,315 339,315 339,314 339,314 340,314 340,314 340,314 340,314 341,314 341,314 341,314 341,314 342,314 342,313 342,313 342,313 343,313 343,313 343,313 344,313 344,313 344,313 344,313 345,312 345,312 345,312 345,312 346,312 346,312 346,312 346,312 347,312 347,312 347,311 347,311 348,311 348,311 348,311 348,311 349,311 349,311 349,311 349,311 350,310 350,310 350,310 351,310 351,310 351,310 351,310 352,310 352,310 352,310 352,309 353,309 353,309 353,309 353,309 354,309 354,309 354,309 354,309 355,309 355,308 355,308 355,308 356,308 356,308 356,308 357,308 357,308 357,308 357,308 358,307 358,307 358,307 358,307 359,307 359,307 359,307 359,307 360,307 360,306 360,306 360,306 361,306 361,306 361,306 361,306 362,306 362,306 362,306 362,305 363,305 363,305 363,305 364,305 364,305 364,305 364,305 365,305 365,305 365,304 365,304 366,304 366,304 366,304 366,304 367,304 367,304 367,304 367,303 368,303 368,303 368,303 368,303 369,303 369,303 369,303 370,303 370,302 370,302 370,302 371,302 371,302 371,302 371,302 372,302 372,302 372,301 372,301 373,301 373,301 373,301 373,301 374,301 374,301 374,301 374,301 375,300 375,300 375,300 375,300 376,300 376,300 376,300 377,300 377,300 377,299 377,299 378,299 378,299 378,299 378,299 379,299 379,299 379,298 379,298 380,298 380,298 380,298 380,298 381,298 381,298 381,298 381,297 382,297 382,297 382,297 383,297 383,297 383,297 383,297 384,297 384,296 384,296 384,296 385,296 385,296 385,296 385,296 386,296 386,296 386,295 386,295 387,295 387,295 387,295 387,295 388,295 388,295 388,294 388,294 389,294 389,294 389,294 390,294 390,294 390,294 390,294 391,293 391,293 391,293 391,293 392,293 392,293 392,293 392,293 393,292 393,292 393,292 393,292 394,292 394,292 394,292 394,292 395,292 395,291 395,291 396,291 396,291 396,291 396,291 397,291 397,291 397,290 397,290 398,290 398,290 398,290 398,290 399,290 399,290 399,289 399,289 400,289 400,289 400,289 400,289 401,289 401,289 401,289 401,288 402,288 402,288 402,288 403,288 403,288 403,288 403,288 404,287 404,287 404,287 404,287 405,287 405,287 405,287 405,287 406,286 406,286 406,286 406,286 407,286 407,286 407,286 407,286 408,285 408,285 408,285 409,285 409,285 409,285 409,285 410,285 410,284 410,284 410,284 411,284 411,284 411,284 411,284 412,284 412,283 412,283 412,283 413,283 413,283 413,283 413,283 414,282 414,282 414,282 414,282 415,282 415,282 415,282 416,282 416,281 416,281 416,281 417,281 417,281 417,281 417,281 418,281 418,280 418,280 418,280 419,280 419,280 419,280 419,280 420,279 420,279 420,279 420,279 421,279 421,279 421,279 422,279 422,278 422,278 422,278 423,278 423,278 423,278 423,278 424,277 424,277 424,277 424,277 425,277 425,277 425,277 425,277 426,276 426,276 426,276 426,276 427,276 427,276 427,276 427,275 428,275 428,275 428,275 429,275 429,275 429,275 429,274 430,274 430,274 430,274 430,274 431,274 431,274 431,274 431,273 432,273 432,273 432,273 432,273 433,273 433,273 433,272 433,272 434,272 434,272 434,272 435,272 435,272 435,271 435,271 436,271 436,271 436,271 436,271 437,271 437,270 437,270 437,270 438,270 438,270 438,270 438,270 439,269 439,269 439,269 439,269 440,269 440,269 440,269 440,268 441,268 441,268 441,268 442,268 442,268 442,268 442,267 443,267 443,267 443,267 443,267 444,267 444,267 444,266 444,266 445,266 445,266 445,266 445,266 446,266 446,265 446,265 446,265 447,265 447,265 447,265 448,264 448,264 448,264 448,264 449,264 449,264 449,264 449,263 450,263 450,263 450,263 450,263 451,263 451,263 451,262 451,262 452,262 452,262 452,262 452,262 453,261 453,261 453,261 453,261 454,261 454,261 454,261 455,260 455,260 455,260 455,260 456,260 456,260 456,260 456,259 457,259 457,259 457,259 457,259 458,259 458,258 458,258 458,258 459,258 459,258 459,258 459,258 460,257 460,257 460,257 461,257 461,257 461,257 461,256 462,256 462,256 462,256 462,256 463,256 463,255 463,255 463,255 464,255 464,255 464,255 464,255 465,254 465,254 465,254 465,254 466,254 466,254 466,253 466,253 467,253 467,253 467,253 468,253 468,252 468,252 468,252 469,252 469,252 469,252 469,251 470,251 470,251 470,251 470,251 471,251 471,251 471,250 471,250 472,250 472,250 472,250 472,250 473,249 473,249 473,249 474,249 474,249 474,249 474,248 475,248 475,248 475,248 475,248 476,248 476,247 476,247 476,247 477,247 477,247 477,247 477,246 478,246 478,246 478,246 478,246 479,246 479,245 479,245 479,245 480,245 480,245 480,245 481,244 481,244 481,244 481,244 482,244 482,244 482,243 482,243 483,243 483,243 483,243 483,243 484,242 484,242 484,242 484,242 485,242 485,241 485,241 485,241 486,241 486,241 486,241 487,240 487,240 487,240 487,240 488,240 488,240 488,239 488,239 489,239 489,239 489,239 489,239 490,238 490,238 490,238 490,238 491,238 491,237 491,237 491,237 492,237 492,237 492,237 492,236 493,236 493,236 493,236 494,236 494,236 494,235 494,235 495,235 495,235 495,235 495,234 496,234 496,234 496,234 496,234 497,234 497,233 497,233 497,233 498,233 498,233 498,232 498,232 499,232 499,232 499,232 500,232 500,231 500,231 500,231 501,231 501,231 501,230 501,230 502,230 502,230 502,230 502,230 503,229 503,229 503,229 503,229 504,229 504,228 504,228 504,228 505,228 505,228 505,227 505,227 506,227 506,227 506,227 507,227 507,226 507,226 507,226 508,226 508,226 508,225 508,225 509,225 509,225 509,225 509,224 510,224 510,224 510,224 510,224 511,224 511,223 511,223 511,223 512,223 512,223 512,222 513,222 513,222 513,222 513,222 514,221 514,221 514,221 514,221 515,221 515,220 515,220 515,220 516,220 516,220 516,219 516,219 517,219 517,219 517,219 517,218 518,218 518,218 518,218 518,218 519,218 519,217 519,217 520,217 520,217 520,217 520,216 521,216 521,216 521,216 521,216 522,215 522,215 522,215 522,215 523,215 523,214 523,214 523,214 524,214 524,214 524,213 524,213 525,213 525,213 525,213 526,212 526,212 526,212 526,212 527,211 527,211 527,211 527,211 528,211 528,210 528,210 528,210 529,210 529,210 529,209 529,209 530,209 530,209 530,209 530,208 531,208 531,208 531,208 531,208 532,207 532,207 532,207 533,207 533,207 533,206 533,206 534,206 534,206 534,206 534,205 535,205 535,205 535,205 535,204 536,204 536,204 536,204 536,204 537,203 537,203 537,203 537,203 538,203 538,202 538,202 539,202 539,202 539,201 539,201 540,201 540,201 540,201 540,200 541,200 541,200 541,200 541,200 542,199 542,199 542,199 542,199 543,198 543,198 543,198 543,198 544,198 544,197 544,197 544,197 545,197 545,196 545,196 546,196 546,196 546,196 546,195 547,195 547,195 547,195 547,195 548,194 548,194 548,194 548,194 549,193 549,193 549,193 549,193 550,193 550,192 550,192 550,192 551,192 551,191 551,191 552,191 552,191 552,190 552,190 553,190 553,190 553,190 553,189 554,189 554,189 554,189 554,188 555,188 555,188 555,188 555,188 556,187 556,187 556,187 556,187 557,186 557,186 557,186 557,186 558,185 558,185 558,185 559,185 559,185 559,184 559,184 560,184 560,184 560,183 560,183 561,183 561,183 561,182 561,182 562,182 562,182 562,181 562,181 563,181 563,181 563,181 563,180 564,180 564,180 564,180 565,179 565,179 565,179 565,179 566,178 566,178 566,178 566,178 567,177 567,177 567,177 567,177 568,177 568,176 568,176 568,176 569,176 569,175 569,175 569,175 570,175 570,174 570,174 570,174 571,174 571,173 571,173 572,173 572,173 572,172 572,172 573,172 573,172 573,171 573,171 574,171 574,171 574,170 574,170 575,170 575,170 575,169 575,169 576,169 576,169 576,168 576,168 577,168 577,168 577,167 578,167 578,167 578,167 578,166 579,166 579,166 579,166 579,165 580,165 580,165 580,165 580,164 581,164 581,164 581,164 581,163 582,163 582,163 582,163 582,162 583,162 583,162 583,162 583,161 584,161 584,161 584,161 585,160 585,160 585,160 585,160 586,159 586,159 586,159 586,159 587,158 587,158 587,158 587,157 588,157 588,157 588,157 588,156 589,156 589,156 589,156 589,155 590,155 590,155 590,155 591,154 591,154 591,154 591,154 592,153 592,153 592,153 592,152 593,152 593,152 593,152 593,151 594,151 594,151 594,151 594,150 595,150 595,150 595,150 595,149 596,149 596,149 596,148 596,148 597,148 597,148 597,147 598,147 598,147 598,147 598,146 599,146 599,146 599,146 599,145 600,145 600,145 600,144 600,144 601,144 601,144 601,143 601,143 602,143 602,142 602,142 602,142 603,142 603,141 603,141 604,141 604,141 604,140 604,140 605,140 605,139 605,139 605,139 606,139 606,138 606,138 606,138 607,137 607,137 607,137 607,137 608,136 608,136 608,136 608,135 609,135 609,135 609,135 609,134 610,134 610,134 610,133 611,133 611,133 611,133 611,132 612,132 612,132 612,131 612,131 613,131 613,131 613,130 613,130 614,130 614,129 614,129 614,129 615,129 615,128 615,128 615,128 616,127 616,127 616,127 617,127 617,126 617,126 617,126 618,125 618,125 618,125 618,125 619,124 619,124 619,124 619,123 620,123 620,123 620,122 620,122 621,122 621,122 621,121 621,121 622,121 622,120 622,120 622,120 623,119 623,119 623,119 624,119 624,118 624,118 624,118 625,117 625,117 625,117 625,116 626,116 626,116 626,116 626,115 627,115 627,115 627,114 627,114 628,114 628,113 628,113 628,113 629,112 629,112 629,112 " stroke="#0000FF"/>
<polyline fill="none" opacity="1" points="110,369 110,369 110,369 110,369 111,369 111,369 111,369 111,369 112,369 112,369 112,369 112,369 113,369 113,369 113,369 113,369 114,369 114,369 114,369 114,369 115,369 115,369 115,369 115,369 116,369 116,369 116,369 117,369 117,369 117,369 117,369 118,369 118,369 118,369 118,369 119,369 119,369 119,369 119,369 120,369 120,369 120,369 120,369 121,369 121,369 121,369 121,369 122,369 122,369 122,369 123,369 123,369 123,369 123,369 124,369 124,369 124,369 124,369 125,369 125,369 125,369 125,369 126,369 126,369 126,369 126,369 127,369 127,369 127,369 127,369 128,369 128,369 128,369 128,369 129,369 129,369 129,369 130,369 130,369 130,369 130,369 131,369 131,369 131,369 131,369 132,369 132,369 132,369 132,369 133,369 133,369 133,369 133,369 134,369 134,369 134,369 134,369 135,369 135,369 135,369 136,369 136,369 136,369 136,369 137,369 137,369 137,369 137,369 138,369 138,369 138,369 138,369 139,369 139,369 139,369 139,369 140,369 140,369 140,369 140,369 141,369 141,369 141,369 141,369 142,368 142,368 142,368 143,368 143,368 143,368 143,368 144,368 144,368 144,368 144,368 145,368 145,368 145,368 145,368 146,368 146,368 146,368 146,368 147,368 147,368 147,368 147,368 148,368 148,368 148,368 149,368 149,368 149,368 149,368 150,368 150,368 150,368 150,368 151,368 151,368 151,368 151,368 152,368 152,368 152,368 152,368 153,368 153,368 153,368 153,368 154,368 154,368 154,368 154,368 155,368 155,368 155,368 156,368 156,368 156,368 156,368 157,368 157,368 157,368 157,368 158,368 158,368 158,368 158,368 159,368 159,368 159,368 159,368 160,368 160,368 160,368 160,368 161,368 161,368 161,368 162,368 162,368 162,368 162,368 163,368 163,368 163,368 163,368 164,368 164,368 164,368 164,368 165,368 165,368 165,368 165,368 166,368 166,368 166,368 166,368 167,368 167,368 167,368 167,368 168,368 168,368 168,368 169,368 169,368 169,368 169,368 170,368 170,368 170,367 170,367 171,367 171,367 171,367 171,367 172,367 172,367 172,367 172,367 173,367 173,367 173,367 173,367 174,367 174,367 174,367 175,367 175,367 175,367 175,367 176,367 176,367 176,367 176,367 177,367 177,367 177,367 177,367 178,367 178,367 178,367 178,367 179,367 179,367 179,367 179,367 180,367 180,367 180,367 180,367 181,367 181,367 181,367 182,367 182,367 182,367 182,367 183,367 183,367 183,367 183,367 184,367 184,367 184,367 184,367 185,367 185,367 185,367 185,367 186,367 186,367 186,367 186,367 187,367 187,367 187,367 188,367 188,367 188,367 188,367 189,367 189,367 189,367 189,367 190,367 190,367 190,367 190,367 191,367 191,367 191,367 191,367 192,367 192,367 192,367 192,367 193,367 193,367 193,367 193,367 194,367 194,367 194,367 195,367 195,367 195,367 195,367 196,366 196,366 196,366 196,366 197,366 197,366 197,366 197,366 198,366 198,366 198,366 198,366 199,366 199,366 199,366 199,366 200,366 200,366 200,366 201,366 201,366 201,366 201,366 202,366 202,366 202,366 202,366 203,366 203,366 203,366 203,366 204,366 204,366 204,366 204,366 205,366 205,366 205,366 205,366 206,366 206,366 206,366 206,366 207,366 207,366 207,366 208,366 208,366 208,366 208,366 209,366 209,366 209,366 209,366 210,366 210,366 210,366 210,366 211,366 211,366 211,366 211,366 212,366 212,366 212,366 212,366 213,366 213,366 213,366 214,366 214,366 214,366 214,366 215,366 215,366 215,366 215,366 216,366 216,366 216,366 216,366 217,366 217,366 217,366 217,366 218,366 218,366 218,366 218,366 219,366 219,365 219,365 219,365 220,365 220,365 220,365 221,365 221,365 221,365 221,365 222,365 222,365 222,365 222,365 223,365 223,365 223,365 223,365 224,365 224,365 224,365 224,365 225,365 225,365 225,365 225,365 226,365 226,365 226,365 227,365 227,365 227,365 227,365 228,365 228,365 228,365 228,365 229,365 229,365 229,365 229,365 230,365 230,365 230,365 230,365 231,365 231,365 231,365 231,365 232,365 232,365 232,365 232,365 233,365 233,365 233,365 234,365 234,365 234,365 234,365 235,365 235,365 235,365 235,365 236,365 236,365 236,365 236,365 237,365 237,365 237,365 237,365 238,365 238,365 238,365 238,365 239,365 239,365 239,365 240,365 240,365 240,364 240,364 241,364 241,364 241,364 241,364 242,364 242,364 242,364 242,364 243,364 243,364 243,364 243,364 244,364 244,364 244,364 244,364 245,364 245,364 245,364 245,364 246,364 246,364 246,364 247,364 247,364 247,364 247,364 248,364 248,364 248,364 248,364 249,364 249,364 249,364 249,364 250,364 250,364 250,364 250,364 251,364 251,364 251,364 251,364 252,364 252,364 252,364 253,364 253,364 253,364 253,364 254,364 254,364 254,364 254,364 255,364 255,364 255,364 255,364 256,364 256,364 256,364 256,364 257,364 257,364 257,364 257,364 258,364 258,364 258,364 258,364 259,364 259,364 259,364 260,363 260,363 260,363 260,363 261,363 261,363 261,363 261,363 262,363 262,363 262,363 262,363 263,363 263,363 263,363 263,363 264,363 264,363 264,363 264,363 265,363 265,363 265,363 266,363 266,363 266,363 266,363 267,363 267,363 267,363 267,363 268,363 268,363 268,363 268,363 269,363 269,363 269,363 269,363 270,363 270,363 270,363 270,363 271,363 271,363 271,363 271,363 272,363 272,363 272,363 273,363 273,363 273,363 273,363 274,363 274,363 274,363 274,363 275,363 275,363 275,363 275,363 276,363 276,363 276,363 276,363 277,363 277,363 277,363 277,363 278,362 278,362 278,362 279,362 279,362 279,362 279,362 280,362 280,362 280,362 280,362 281,362 281,362 281,362 281,362 282,362 282,362 282,362 282,362 283,362 283,362 283,362 283,362 284,362 284,362 284,362 284,362 285,362 285,362 285,362 286,362 286,362 286,362 286,362 287,362 287,362 287,362 287,362 288,362 288,362 288,362 288,362 289,362 289,362 289,362 289,362 290,362 290,362 290,362 290,362 291,362 291,362 291,362 292,362 292,362 292,362 292,362 293,362 293,362 293,362 293,362 294,362 294,362 294,362 294,362 295,361 295,361 295,361 295,361 296,361 296,361 296,361 296,361 297,361 297,361 297,361 297,361 298,361 298,361 298,361 299,361 299,361 299,361 299,361 300,361 300,361 300,361 300,361 301,361 301,361 301,361 301,361 302,361 302,361 302,361 302,361 303,361 303,361 303,361 303,361 304,361 304,361 304,361 305,361 305,361 305,361 305,361 306,361 306,361 306,361 306,361 307,361 307,361 307,361 307,361 308,361 308,361 308,361 308,361 309,361 309,361 309,361 309,361 310,361 310,361 310,360 310,360 311,360 311,360 311,360 312,360 312,360 312,360 312,360 313,360 313,360 313,360 313,360 314,360 314,360 314,360 314,360 315,360 315,360 315,360 315,360 316,360 316,360 316,360 316,360 317,360 317,360 317,360 318,360 318,360 318,360 318,360 319,360 319,360 319,360 319,360 320,360 320,360 320,360 320,360 321,360 321,360 321,360 321,360 322,360 322,360 322,360 322,360 323,360 323,360 323,360 323,360 324,360 324,360 324,360 325,360 325,360 325,359 325,359 326,359 326,359 326,359 326,359 327,359 327,359 327,359 327,359 328,359 328,359 328,359 328,359 329,359 329,359 329,359 329,359 330,359 330,359 330,359 331,359 331,359 331,359 331,359 332,359 332,359 332,359 332,359 333,359 333,359 333,359 333,359 334,359 334,359 334,359 334,359 335,359 335,359 335,359 335,359 336,359 336,359 336,359 336,359 337,359 337,359 337,359 338,359 338,359 338,359 338,359 339,359 339,359 339,358 339,358 340,358 340,358 340,358 340,358 341,358 341,358 341,358 341,358 342,358 342,358 342,358 342,358 343,358 343,358 343,358 344,358 344,358 344,358 344,358 345,358 345,358 345,358 345,358 346,358 346,358 346,358 346,358 347,358 347,358 347,358 347,358 348,358 348,358 348,358 348,358 349,358 349,358 349,358 349,358 350,358 350,358 350,358 351,358 351,358 351,358 351,358 352,358 352,358 352,358 352,357 353,357 353,357 353,357 353,357 354,357 354,357 354,357 354,357 355,357 355,357 355,357 355,357 356,357 356,357 356,357 357,357 357,357 357,357 357,357 358,357 358,357 358,357 358,357 359,357 359,357 359,357 359,357 360,357 360,357 360,357 360,357 361,357 361,357 361,357 361,357 362,357 362,357 362,357 362,357 363,357 363,357 363,357 364,357 364,357 364,357 364,357 365,357 365,357 365,356 365,356 366,356 366,356 366,356 366,356 367,356 367,356 367,356 367,356 368,356 368,356 368,356 368,356 369,356 369,356 369,356 370,356 370,356 370,356 370,356 371,356 371,356 371,356 371,356 372,356 372,356 372,356 372,356 373,356 373,356 373,356 373,356 374,356 374,356 374,356 374,356 375,356 375,356 375,356 375,356 376,356 376,356 376,356 377,356 377,356 377,355 377,355 378,355 378,355 378,355 378,355 379,355 379,355 379,355 379,355 380,355 380,355 380,355 380,355 381,355 381,355 381,355 381,355 382,355 382,355 382,355 383,355 383,355 383,355 383,355 384,355 384,355 384,355 384,355 385,355 385,355 385,355 385,355 386,355 386,355 386,355 386,355 387,355 387,355 387,355 387,355 388,355 388,355 388,354 388,354 389,354 389,354 389,354 390,354 390,354 390,354 390,354 391,354 391,354 391,354 391,354 392,354 392,354 392,354 392,354 393,354 393,354 393,354 393,354 394,354 394,354 394,354 394,354 395,354 395,354 395,354 396,354 396,354 396,354 396,354 397,354 397,354 397,354 397,354 398,354 398,354 398,354 398,354 399,354 399,354 399,353 399,353 400,353 400,353 400,353 400,353 401,353 401,353 401,353 401,353 402,353 402,353 402,353 403,353 403,353 403,353 403,353 404,353 404,353 404,353 404,353 405,353 405,353 405,353 405,353 406,353 406,353 406,353 406,353 407,353 407,353 407,353 407,353 408,353 408,353 408,353 409,353 409,353 409,353 409,353 410,353 410,352 410,352 410,352 411,352 411,352 411,352 411,352 412,352 412,352 412,352 412,352 413,352 413,352 413,352 413,352 414,352 414,352 414,352 414,352 415,352 415,352 415,352 416,352 416,352 416,352 416,352 417,352 417,352 417,352 417,352 418,352 418,352 418,352 418,352 419,352 419,352 419,352 419,352 420,351 420,351 420,351 420,351 421,351 421,351 421,351 422,351 422,351 422,351 422,351 423,351 423,351 423,351 423,351 424,351 424,351 424,351 424,351 425,351 425,351 425,351 425,351 426,351 426,351 426,351 426,351 427,351 427,351 427,351 427,351 428,351 428,351 428,351 429,351 429,351 429,351 429,350 430,350 430,350 430,350 430,350 431,350 431,350 431,350 431,350 432,350 432,350 432,350 432,350 433,350 433,350 433,350 433,350 434,350 434,350 434,350 435,350 435,350 435,350 435,350 436,350 436,350 436,350 436,350 437,350 437,350 437,350 437,350 438,350 438,350 438,350 438,350 439,349 439,349 439,349 439,349 440,349 440,349 440,349 440,349 441,349 441,349 441,349 442,349 442,349 442,349 442,349 443,349 443,349 443,349 443,349 444,349 444,349 444,349 444,349 445,349 445,349 445,349 445,349 446,349 446,349 446,349 446,349 447,349 447,349 447,349 448,348 448,348 448,348 448,348 449,348 449,348 449,348 449,348 450,348 450,348 450,348 450,348 451,348 451,348 451,348 451,348 452,348 452,348 452,348 452,348 453,348 453,348 453,348 453,348 454,348 454,348 454,348 455,348 455,348 455,348 455,348 456,348 456,348 456,348 456,347 457,347 457,347 457,347 457,347 458,347 458,347 458,347 458,347 459,347 459,347 459,347 459,347 460,347 460,347 460,347 461,347 461,347 461,347 461,347 462,347 462,347 462,347 462,347 463,347 463,347 463,347 463,347 464,347 464,347 464,347 464,347 465,346 465,346 465,346 465,346 466,346 466,346 466,346 466,346 467,346 467,346 467,346 468,346 468,346 468,346 468,346 469,346 469,346 469,346 469,346 470,346 470,346 470,346 470,346 471,346 471,346 471,346 471,346 472,346 472,346 472,346 472,346 473,345 473,345 473,345 474,345 474,345 474,345 474,345 475,345 475,345 475,345 475,345 476,345 476,345 476,345 476,345 477,345 477,345 477,345 477,345 478,345 478,345 478,345 478,345 479,345 479,345 479,345 479,345 480,345 480,345 480,345 481,344 481,344 481,344 481,344 482,344 482,344 482,344 482,344 483,344 483,344 483,344 483,344 484,344 484,344 484,344 484,344 485,344 485,344 485,344 485,344 486,344 486,344 486,344 487,344 487,344 487,344 487,344 488,344 488,344 488,343 488,343 489,343 489,343 489,343 489,343 490,343 490,343 490,343 490,343 491,343 491,343 491,343 491,343 492,343 492,343 492,343 492,343 493,343 493,343 493,343 494,343 494,343 494,343 494,343 495,343 495,343 495,343 495,342 496,342 496,342 496,342 496,342 497,342 497,342 497,342 497,342 498,342 498,342 498,342 498,342 499,342 499,342 499,342 500,342 500,342 500,342 500,342 501,342 501,342 501,342 501,342 502,342 502,342 502,342 502,342 503,341 503,341 503,341 503,341 504,341 504,341 504,341 504,341 505,341 505,341 505,341 505,341 506,341 506,341 506,341 507,341 507,341 507,341 507,341 508,341 508,341 508,341 508,341 509,341 509,341 509,341 509,340 510,340 510,340 510,340 510,340 511,340 511,340 511,340 511,340 512,340 512,340 512,340 513,340 513,340 513,340 513,340 514,340 514,340 514,340 514,340 515,340 515,340 515,340 515,340 516,340 516,340 516,339 516,339 517,339 517,339 517,339 517,339 518,339 518,339 518,339 518,339 519,339 519,339 519,339 520,339 520,339 520,339 520,339 521,339 521,339 521,339 521,339 522,339 522,339 522,339 522,339 523,339 523,338 523,338 523,338 524,338 524,338 524,338 524,338 525,338 525,338 525,338 526,338 526,338 526,338 526,338 527,338 527,338 527,338 527,338 528,338 528,338 528,338 528,338 529,338 529,338 529,337 529,337 530,337 530,337 530,337 530,337 531,337 531,337 531,337 531,337 532,337 532,337 532,337 533,337 533,337 533,337 533,337 534,337 534,337 534,337 534,337 535,337 535,337 535,337 535,336 536,336 536,336 536,336 536,336 537,336 537,336 537,336 537,336 538,336 538,336 538,336 539,336 539,336 539,336 539,336 540,336 540,336 540,336 540,336 541,336 541,336 541,336 541,336 542,335 542,335 542,335 542,335 543,335 543,335 543,335 543,335 544,335 544,335 544,335 544,335 545,335 545,335 545,335 546,335 546,335 546,335 546,335 547,335 547,335 547,335 547,335 548,334 548,334 548,334 548,334 549,334 549,334 549,334 549,334 550,334 550,334 550,334 550,334 551,334 551,334 551,334 552,334 552,334 552,334 552,334 553,334 553,334 553,334 553,333 554,333 554,333 554,333 554,333 555,333 555,333 555,333 555,333 556,333 556,333 556,333 556,333 557,333 557,333 557,333 557,333 558,333 558,333 558,333 559,333 559,333 559,332 559,332 560,332 560,332 560,332 560,332 561,332 561,332 561,332 561,332 562,332 562,332 562,332 562,332 563,332 563,332 563,332 563,332 564,332 564,332 564,332 565,331 565,331 565,331 565,331 566,331 566,331 566,331 566,331 567,331 567,331 567,331 567,331 568,331 568,331 568,331 568,331 569,331 569,331 569,331 569,331 570,331 570,330 570,330 570,330 571,330 571,330 571,330 572,330 572,330 572,330 572,330 573,330 573,330 573,330 573,330 574,330 574,330 574,330 574,330 575,330 575,330 575,329 575,329 576,329 576,329 576,329 576,329 577,329 577,329 577,329 578,329 578,329 578,329 578,329 579,329 579,329 579,329 579,329 580,329 580,329 580,329 580,328 581,328 581,328 581,328 581,328 582,328 582,328 582,328 582,328 583,328 583,328 583,328 583,328 584,328 584,328 584,328 585,328 585,328 585,328 585,328 586,327 586,327 586,327 586,327 587,327 587,327 587,327 587,327 588,327 588,327 588,327 588,327 589,327 589,327 589,327 589,327 590,327 590,327 590,327 591,326 591,326 591,326 591,326 592,326 592,326 592,326 592,326 593,326 593,326 593,326 593,326 594,326 594,326 594,326 594,326 595,326 595,326 595,326 595,325 596,325 596,325 596,325 596,325 597,325 597,325 597,325 598,325 598,325 598,325 598,325 599,325 599,325 599,325 599,325 600,325 600,325 600,324 600,324 601,324 601,324 601,324 601,324 602,324 602,324 602,324 602,324 603,324 603,324 603,324 604,324 604,324 604,324 604,324 605,324 605,323 605,323 605,323 606,323 606,323 606,323 606,323 607,323 607,323 607,323 607,323 608,323 608,323 608,323 608,323 609,323 609,323 609,323 609,322 610,322 610,322 610,322 611,322 611,322 611,322 611,322 612,322 612,322 612,322 612,322 613,322 613,322 613,322 613,322 614,322 614,321 614,321 614,321 615,321 615,321 615,321 615,321 616,321 616,321 616,321 617,321 617,321 617,321 617,321 618,321 618,321 618,321 618,321 619,320 619,320 619,320 619,320 620,320 620,320 620,320 620,320 621,320 621,320 621,320 621,320 622,320 622,320 622,320 622,320 623,319 623,319 623,319 624,319 624,319 624,319 624,319 625,319 625,319 625,319 625,319 626,319 626,319 626,319 626,319 627,319 627,319 627,318 627,318 628,318 628,318 628,318 628,318 629,318 629,318 629,318 " stroke="#0000FF"/>
<polyline fill="none" opacity="1" points="110,370 110,370 110,370 110,370 111,370 111,370 111,370 111,370 112,370 112,370 112,370 112,370 113,370 113,370 113,370 113,370 114,369 114,369 114,369 114,369 115,369 115,369 115,369 115,369 116,369 116,369 116,369 117,369 117,369 117,369 117,369 118,369 118,369 118,369 118,369 119,369 119,369 119,369 119,369 120,369 120,369 120,369 120,369 121,369 121,369 121,369 121,369 122,369 122,369 122,369 123,369 123,369 123,369 123,369 124,369 124,369 124,369 124,369 125,369 125,369 125,369 125,369 126,369 126,369 126,369 126,369 127,369 127,369 127,369 127,369 128,369 128,369 128,369 128,369 129,369 129,369 129,369 130,369 130,369 130,369 130,369 131,369 131,369 131,369 131,369 132,369 132,369 132,369 132,369 133,369 133,369 133,369 133,369 134,369 134,369 134,369 134,369 135,369 135,369 135,369 136,369 136,369 136,369 136,369 137,369 137,369 137,369 137,369 138,369 138,369 138,369 138,369 139,369 139,369 139,369 139,369 140,369 140,369 140,369 140,369 141,369 141,369 141,369 141,369 142,369 142,369 142,369 143,369 143,369 143,369 143,369 144,369 144,369 144,369 144,369 145,369 145,369 145,369 145,369 146,369 146,369 146,369 146,369 147,369 147,369 147,369 147,369 148,369 148,369 148,369 149,369 149,369 149,369 149,369 150,369 150,369 150,369 150,369 151,369 151,369 151,369 151,369 152,369 152,369 152,369 152,369 153,369 153,369 153,369 153,369 154,369 154,369 154,369 154,369 155,369 155,369 155,369 156,369 156,369 156,369 156,369 157,369 157,369 157,369 157,369 158,369 158,369 158,369 158,369 159,369 159,369 159,369 159,369 160,369 160,369 160,369 160,369 161,369 161,369 161,369 162,369 162,369 162,369 162,369 163,369 163,369 163,369 163,369 164,369 164,369 164,369 164,369 165,369 165,369 165,369 165,369 166,369 166,369 166,369 166,369 167,369 167,369 167,369 167,369 168,369 168,369 168,369 169,369 169,369 169,369 169,369 170,369 170,369 170,369 170,369 171,369 171,369 171,369 171,369 172,369 172,369 172,369 172,369 173,369 173,369 173,369 173,369 174,369 174,369 174,369 175,369 175,369 175,369 175,369 176,369 176,369 176,369 176,369 177,369 177,369 177,369 177,369 178,369 178,369 178,369 178,369 179,369 179,369 179,369 179,369 180,369 180,369 180,369 180,369 181,369 181,369 181,369 182,369 182,369 182,369 182,369 183,369 183,369 183,369 183,369 184,369 184,369 184,369 184,369 185,369 185,369 185,369 185,369 186,369 186,369 186,369 186,369 187,369 187,369 187,369 188,369 188,369 188,369 188,369 189,369 189,369 189,369 189,369 190,369 190,369 190,369 190,369 191,369 191,369 191,369 191,369 192,369 192,369 192,369 192,369 193,369 193,369 193,369 193,369 194,369 194,369 194,369 195,369 195,369 195,369 195,369 196,369 196,369 196,369 196,369 197,369 197,369 197,369 197,369 198,369 198,369 198,369 198,369 199,369 199,369 199,369 199,369 200,369 200,369 200,369 201,369 201,369 201,369 201,369 202,369 202,369 202,369 202,369 203,369 203,369 203,369 203,369 204,369 204,369 204,369 204,369 205,369 205,369 205,369 205,369 206,369 206,369 206,369 206,369 207,369 207,369 207,369 208,369 208,369 208,369 208,369 209,369 209,369 209,369 209,369 210,369 210,369 210,369 210,369 211,369 211,369 211,369 211,369 212,369 212,369 212,369 212,369 213,369 213,369 213,369 214,369 214,369 214,369 214,369 215,369 215,369 215,369 215,369 216,369 216,369 216,369 216,369 217,369 217,369 217,369 217,369 218,369 218,369 218,369 218,369 219,369 219,369 219,369 219,369 220,369 220,369 220,369 221,369 221,369 221,369 221,369 222,368 222,368 222,368 222,368 223,368 223,368 223,368 223,368 224,368 224,368 224,368 224,368 225,368 225,368 225,368 225,368 226,368 226,368 226,368 227,368 227,368 227,368 227,368 228,368 228,368 228,368 228,368 229,368 229,368 229,368 229,368 230,368 230,368 230,368 230,368 231,368 231,368 231,368 231,368 232,368 232,368 232,368 232,368 233,368 233,368 233,368 234,368 234,368 234,368 234,368 235,368 235,368 235,368 235,368 236,368 236,368 236,368 236,368 237,368 237,368 237,368 237,368 238,368 238,368 238,368 238,368 239,368 239,368 239,368 240,368 240,368 240,368 240,368 241,368 241,368 241,368 241,368 242,368 242,368 242,368 242,368 243,368 243,368 243,368 243,368 244,368 244,368 244,368 244,368 245,368 245,368 245,368 245,368 246,368 246,368 246,368 247,368 247,368 247,368 247,368 248,368 248,368 248,368 248,368 249,368 249,368 249,368 249,368 250,368 250,368 250,368 250,368 251,368 251,368 251,368 251,368 252,368 252,368 252,368 253,368 253,368 253,368 253,368 254,368 254,368 254,368 254,368 255,368 255,368 255,368 255,368 256,368 256,368 256,368 256,368 257,368 257,368 257,368 257,368 258,368 258,368 258,368 258,368 259,368 259,368 259,368 260,368 260,367 260,367 260,367 261,367 261,367 261,367 261,367 262,367 262,367 262,367 262,367 263,367 263,367 263,367 263,367 264,367 264,367 264,367 264,367 265,367 265,367 265,367 266,367 266,367 266,367 266,367 267,367 267,367 267,367 267,367 268,367 268,367 268,367 268,367 269,367 269,367 269,367 269,367 270,367 270,367 270,367 270,367 271,367 271,367 271,367 271,367 272,367 272,367 272,367 273,367 273,367 273,367 273,367 274,367 274,367 274,367 274,367 275,367 275,367 275,367 275,367 276,367 276,367 276,367 276,367 277,367 277,367 277,367 277,367 278,367 278,367 278,367 279,367 279,367 279,367 279,367 280,367 280,367 280,367 280,367 281,367 281,367 281,367 281,367 282,367 282,367 282,367 282,367 283,367 283,367 283,367 283,367 284,367 284,367 284,367 284,367 285,367 285,367 285,367 286,367 286,367 286,367 286,367 287,366 287,366 287,366 287,366 288,366 288,366 288,366 288,366 289,366 289,366 289,366 289,366 290,366 290,366 290,366 290,366 291,366 291,366 291,366 292,366 292,366 292,366 292,366 293,366 293,366 293,366 293,366 294,366 294,366 294,366 294,366 295,366 295,366 295,366 295,366 296,366 296,366 296,366 296,366 297,366 297,366 297,366 297,366 298,366 298,366 298,366 299,366 299,366 299,366 299,366 300,366 300,366 300,366 300,366 301,366 301,366 301,366 301,366 302,366 302,366 302,366 302,366 303,366 303,366 303,366 303,366 304,366 304,366 304,366 305,366 305,366 305,366 305,366 306,366 306,366 306,366 306,366 307,366 307,366 307,366 307,366 308,366 308,365 308,365 308,365 309,365 309,365 309,365 309,365 310,365 310,365 310,365 310,365 311,365 311,365 311,365 312,365 312,365 312,365 312,365 313,365 313,365 313,365 313,365 314,365 314,365 314,365 314,365 315,365 315,365 315,365 315,365 316,365 316,365 316,365 316,365 317,365 317,365 317,365 318,365 318,365 318,365 318,365 319,365 319,365 319,365 319,365 320,365 320,365 320,365 320,365 321,365 321,365 321,365 321,365 322,365 322,365 322,365 322,365 323,365 323,365 323,365 323,365 324,365 324,365 324,365 325,365 325,365 325,365 325,365 326,364 326,364 326,364 326,364 327,364 327,364 327,364 327,364 328,364 328,364 328,364 328,364 329,364 329,364 329,364 329,364 330,364 330,364 330,364 331,364 331,364 331,364 331,364 332,364 332,364 332,364 332,364 333,364 333,364 333,364 333,364 334,364 334,364 334,364 334,364 335,364 335,364 335,364 335,364 336,364 336,364 336,364 336,364 337,364 337,364 337,364 338,364 338,364 338,364 338,364 339,364 339,364 339,364 339,364 340,364 340,364 340,364 340,364 341,364 341,364 341,363 341,363 342,363 342,363 342,363 342,363 343,363 343,363 343,363 344,363 344,363 344,363 344,363 345,363 345,363 345,363 345,363 346,363 346,363 346,363 346,363 347,363 347,363 347,363 347,363 348,363 348,363 348,363 348,363 349,363 349,363 349,363 349,363 350,363 350,363 350,363 351,363 351,363 351,363 351,363 352,363 352,363 352,363 352,363 353,363 353,363 353,363 353,363 354,363 354,363 354,363 354,363 355,362 355,362 355,362 355,362 356,362 356,362 356,362 357,362 357,362 357,362 357,362 358,362 358,362 358,362 358,362 359,362 359,362 359,362 359,362 360,362 360,362 360,362 360,362 361,362 361,362 361,362 361,362 362,362 362,362 362,362 362,362 363,362 363,362 363,362 364,362 364,362 364,362 364,362 365,362 365,362 365,362 365,362 366,362 366,362 366,362 366,362 367,362 367,361 367,361 367,361 368,361 368,361 368,361 368,361 369,361 369,361 369,361 370,361 370,361 370,361 370,361 371,361 371,361 371,361 371,361 372,361 372,361 372,361 372,361 373,361 373,361 373,361 373,361 374,361 374,361 374,361 374,361 375,361 375,361 375,361 375,361 376,361 376,361 376,361 377,361 377,361 377,361 377,361 378,361 378,361 378,360 378,360 379,360 379,360 379,360 379,360 380,360 380,360 380,360 380,360 381,360 381,360 381,360 381,360 382,360 382,360 382,360 383,360 383,360 383,360 383,360 384,360 384,360 384,360 384,360 385,360 385,360 385,360 385,360 386,360 386,360 386,360 386,360 387,360 387,360 387,360 387,360 388,360 388,360 388,360 388,359 389,359 389,359 389,359 390,359 390,359 390,359 390,359 391,359 391,359 391,359 391,359 392,359 392,359 392,359 392,359 393,359 393,359 393,359 393,359 394,359 394,359 394,359 394,359 395,359 395,359 395,359 396,359 396,359 396,359 396,359 397,359 397,359 397,359 397,359 398,359 398,359 398,358 398,358 399,358 399,358 399,358 399,358 400,358 400,358 400,358 400,358 401,358 401,358 401,358 401,358 402,358 402,358 402,358 403,358 403,358 403,358 403,358 404,358 404,358 404,358 404,358 405,358 405,358 405,358 405,358 406,358 406,358 406,358 406,358 407,358 407,357 407,357 407,357 408,357 408,357 408,357 409,357 409,357 409,357 409,357 410,357 410,357 410,357 410,357 411,357 411,357 411,357 411,357 412,357 412,357 412,357 412,357 413,357 413,357 413,357 413,357 414,357 414,357 414,357 414,357 415,357 415,357 415,356 416,356 416,356 416,356 416,356 417,356 417,356 417,356 417,356 418,356 418,356 418,356 418,356 419,356 419,356 419,356 419,356 420,356 420,356 420,356 420,356 421,356 421,356 421,356 422,356 422,356 422,356 422,356 423,356 423,356 423,356 423,355 424,355 424,355 424,355 424,355 425,355 425,355 425,355 425,355 426,355 426,355 426,355 426,355 427,355 427,355 427,355 427,355 428,355 428,355 428,355 429,355 429,355 429,355 429,355 430,355 430,355 430,355 430,355 431,354 431,354 431,354 431,354 432,354 432,354 432,354 432,354 433,354 433,354 433,354 433,354 434,354 434,354 434,354 435,354 435,354 435,354 435,354 436,354 436,354 436,354 436,354 437,354 437,354 437,354 437,354 438,354 438,353 438,353 438,353 439,353 439,353 439,353 439,353 440,353 440,353 440,353 440,353 441,353 441,353 441,353 442,353 442,353 442,353 442,353 443,353 443,353 443,353 443,353 444,353 444,353 444,353 444,352 445,352 445,352 445,352 445,352 446,352 446,352 446,352 446,352 447,352 447,352 447,352 448,352 448,352 448,352 448,352 449,352 449,352 449,352 449,352 450,352 450,352 450,352 450,352 451,352 451,351 451,351 451,351 452,351 452,351 452,351 452,351 453,351 453,351 453,351 453,351 454,351 454,351 454,351 455,351 455,351 455,351 455,351 456,351 456,351 456,351 456,351 457,351 457,351 457,350 457,350 458,350 458,350 458,350 458,350 459,350 459,350 459,350 459,350 460,350 460,350 460,350 461,350 461,350 461,350 461,350 462,350 462,350 462,350 462,350 463,350 463,350 463,349 463,349 464,349 464,349 464,349 464,349 465,349 465,349 465,349 465,349 466,349 466,349 466,349 466,349 467,349 467,349 467,349 468,349 468,349 468,349 468,349 469,348 469,348 469,348 469,348 470,348 470,348 470,348 470,348 471,348 471,348 471,348 471,348 472,348 472,348 472,348 472,348 473,348 473,348 473,348 474,348 474,348 474,347 474,347 475,347 475,347 475,347 475,347 476,347 476,347 476,347 476,347 477,347 477,347 477,347 477,347 478,347 478,347 478,347 478,347 479,347 479,347 479,347 479,346 480,346 480,346 480,346 481,346 481,346 481,346 481,346 482,346 482,346 482,346 482,346 483,346 483,346 483,346 483,346 484,346 484,346 484,346 484,345 485,345 485,345 485,345 485,345 486,345 486,345 486,345 487,345 487,345 487,345 487,345 488,345 488,345 488,345 488,345 489,345 489,345 489,345 489,344 490,344 490,344 490,344 490,344 491,344 491,344 491,344 491,344 492,344 492,344 492,344 492,344 493,344 493,344 493,344 494,344 494,344 494,344 494,343 495,343 495,343 495,343 495,343 496,343 496,343 496,343 496,343 497,343 497,343 497,343 497,343 498,343 498,343 498,343 498,343 499,342 499,342 499,342 500,342 500,342 500,342 500,342 501,342 501,342 501,342 501,342 502,342 502,342 502,342 502,342 503,342 503,342 503,342 503,341 504,341 504,341 504,341 504,341 505,341 505,341 505,341 505,341 506,341 506,341 506,341 507,341 507,341 507,341 507,341 508,340 508,340 508,340 508,340 509,340 509,340 509,340 509,340 510,340 510,340 510,340 510,340 511,340 511,340 511,340 511,340 512,340 512,339 512,339 513,339 513,339 513,339 513,339 514,339 514,339 514,339 514,339 515,339 515,339 515,339 515,339 516,339 516,338 516,338 516,338 517,338 517,338 517,338 517,338 518,338 518,338 518,338 518,338 519,338 519,338 519,338 520,338 520,338 520,337 520,337 521,337 521,337 521,337 521,337 522,337 522,337 522,337 522,337 523,337 523,337 523,337 523,337 524,337 524,336 524,336 524,336 525,336 525,336 525,336 526,336 526,336 526,336 526,336 527,336 527,336 527,336 527,336 528,336 528,335 528,335 528,335 529,335 529,335 529,335 529,335 530,335 530,335 530,335 530,335 531,335 531,335 531,335 531,334 532,334 532,334 532,334 533,334 533,334 533,334 533,334 534,334 534,334 534,334 534,334 535,334 535,334 535,333 535,333 536,333 536,333 536,333 536,333 537,333 537,333 537,333 537,333 538,333 538,333 538,333 539,333 539,332 539,332 539,332 540,332 540,332 540,332 540,332 541,332 541,332 541,332 541,332 542,332 542,332 542,331 542,331 543,331 543,331 543,331 543,331 544,331 544,331 544,331 544,331 545,331 545,331 545,331 546,330 546,330 546,330 546,330 547,330 547,330 547,330 547,330 548,330 548,330 548,330 548,330 549,330 549,329 549,329 549,329 550,329 550,329 550,329 550,329 551,329 551,329 551,329 552,329 552,329 552,328 552,328 553,328 553,328 553,328 553,328 554,328 554,328 554,328 554,328 555,328 555,328 555,328 555,327 556,327 556,327 556,327 556,327 557,327 557,327 557,327 557,327 558,327 558,327 558,327 559,326 559,326 559,326 559,326 560,326 560,326 560,326 560,326 561,326 561,326 561,326 561,325 562,325 562,325 562,325 562,325 563,325 563,325 563,325 563,325 564,325 564,325 564,325 565,324 565,324 565,324 565,324 566,324 566,324 566,324 566,324 567,324 567,324 567,324 567,323 568,323 568,323 568,323 568,323 569,323 569,323 569,323 569,323 570,323 570,323 570,323 570,322 571,322 571,322 571,322 572,322 572,322 572,322 572,322 573,322 573,322 573,322 573,321 574,321 574,321 574,321 574,321 575,321 575,321 575,321 575,321 576,321 576,320 576,320 576,320 577,320 577,320 577,320 578,320 578,320 578,320 578,320 579,320 579,319 579,319 579,319 580,319 580,319 580,319 580,319 581,319 581,319 581,319 581,318 582,318 582,318 582,318 582,318 583,318 583,318 583,318 583,318 584,318 584,318 584,317 585,317 585,317 585,317 585,317 586,317 586,317 586,317 586,317 587,317 587,316 587,316 587,316 588,316 588,316 588,316 588,316 589,316 589,316 589,316 589,315 590,315 590,315 590,315 591,315 591,315 591,315 591,315 592,315 592,314 592,314 592,314 593,314 593,314 593,314 593,314 594,314 594,314 594,314 594,313 595,313 595,313 595,313 595,313 596,313 596,313 596,313 596,313 597,313 597,312 597,312 598,312 598,312 598,312 598,312 599,312 599,312 599,312 599,311 600,311 600,311 600,311 600,311 601,311 601,311 601,311 601,311 602,310 602,310 602,310 602,310 603,310 603,310 603,310 604,310 604,310 604,309 604,309 605,309 605,309 605,309 605,309 606,309 606,309 606,309 606,308 607,308 607,308 607,308 607,308 608,308 608,308 608,308 608,308 609,307 609,307 609,307 609,307 610,307 610,307 610,307 611,307 611,307 611,306 611,306 612,306 612,306 612,306 612,306 613,306 613,306 613,305 613,305 614,305 614,305 614,305 614,305 615,305 615,305 615,305 615,304 616,304 616,304 616,304 617,304 617,304 617,304 617,304 618,303 618,303 618,303 618,303 619,303 619,303 619,303 619,303 620,302 620,302 620,302 620,302 621,302 621,302 621,302 621,302 622,301 622,301 622,301 622,301 623,301 623,301 623,301 624,301 624,300 624,300 624,300 625,300 625,300 625,300 625,300 626,300 626,299 626,299 626,299 627,299 627,299 627,299 627,299 628,299 628,298 628,298 628,298 629,298 629,298 629,298 " stroke="#00FF00"/>
</svg>