<svg viewBox="0 0 640 480" xmlns="http://www.w3.org/2000/svg">
<rect fill="#FFFFFF" height="480" opacity="1" stroke="none" width="640" x="0" y="0"/>
<line opacity="0.1" stroke="#000000" x1="112" x2="112" y1="370" y2="10"/>
<line opacity="0.1" stroke="#000000" x1="115" x2="115" y1="370" y2="10"/>
<line opacity="0.1" stroke="#000000" x1="117" x2="117" y1="370" y2="10"/>
<line opacity="0.1" stroke="#000000" x1="120" x2="120" y1="370" y2="10"/>
<line opacity="0.1" stroke="#000000" x1="123" x2="123" y1="370" y2="10"/>
<line opacity="0.1" stroke="#000000" x1="125" x2="125" y1="370" y2="10"/>
<line opacity="0.1" stroke="#000000" x1="128" x2="128" y1="370" y2="10"/>
<line opacity="0.1" stroke="#000000" x1="130" x2="130" y1="370" y2="10"/>
<line opacity="0.1" stroke="#000000" x1="133" x2="133" y1="370" y2="10"/>
<line opacity="0.1" stroke="#000000" x1="136" x2="136" y1="370" y2="10"/>
<line opacity="0.1" stroke="#000000" x1="138" x2="138" y1="370" y2="10"/>
<line opacity="0.1" stroke="#000000" x1="141" x2="141" y1="370" y2="10"/>
<line opacity="0.1" stroke="#000000" x1="143" x2="143" y1="370" y2="10"/>
<line opacity="0.1" stroke="#000000" x1="146" x2="146" y1="370" y2="10"/>
<line opacity="0.1" stroke="#000000" x1="149" x2="149" y1="370" y2="10"/>
<line opacity="0.1" stroke="#000000" x1="151" x2="151" y1="370" y2="10"/>
<line opacity="0.1" stroke="#000000" x1="154" x2="154" y1="370" y2="10"/>
<line opacity="0.1" stroke="#000000" x1="156" x2="156" y1="370" y2="10"/>
<line opacity="0.1" stroke="#000000" x1="159" x2="159" y1="370" y2="10"/>
<line opacity="0.1" stroke="#000000" x1="162" x2="162" y1="370" y2="10"/>
<line opacity="0.1" stroke="#000000" x1="164" x2="164" y1="370" y2="10"/>
<line opacity="0.1" stroke="#000000" x1="167" x2="167" y1="370" y2="10"/>
<line opacity="0.1" stroke="#000000" x1="169" x2="169" y1="370" y2="10"/>
<line opacity="0.1" stroke="#000000" x1="172" x2="172" y1="370" y2="10"/>
<line opacity="0.1" stroke="#000000" x1="175" x2="175" y1="370" y2="10"/>
<line opacity="0.1" stroke="#000000" x1="177" x2="177" y1="370" y2="10"/>
<line opacity="0.1" stroke="#000000" x1="180" x2="180" y1="370" y2="10"/>
<line opacity="0.1" stroke="#000000" x1="182" x2="182" y1="370" y2="10"/>
<line opacity="0.1" stroke="#000000" x1="185" x2="185" y1="370" y2="10"/>
<line opacity="0.1" stroke="#000000" x1="188" x2="188" y1="370" y2="10"/>
<line opacity="0.1" stroke="#000000" x1="190" x2="190" y1="370" y2="10"/>
<line opacity="0.1" stroke="#000000" x1="193" x2="193" y1="370" y2="10"/>
<line opacity="0.1" stroke="#000000" x1="195" x2="195" y1="370" y2="10"/>
<line opacity="0.1" stroke="#000000" x1="198" x2="198" y1="370" y2="10"/>
<line opacity="0.1" stroke="#000000" x1="201" x2="201" y1="370" y2="10"/>
<line opacity="0.1" stroke="#000000" x1="203" x2="203" y1="370" y2="10"/>
<line opacity="0.1" stroke="#000000" x1="206" x2="206" y1="370" y2="10"/>
<line opacity="0.1" stroke="#000000" x1="208" x2="208" y1="370" y2="10"/>
<line opacity="0.1" stroke="#000000" x1="211" x2="211" y1="370" y2="10"/>
<line opacity="0.1" stroke="#000000" x1="214" x2="214" y1="370" y2="10"/>
<line opacity="0.1" stroke="#000000" x1="216" x2="216" y1="370" y2="10"/>
<line opacity="0.1" stroke="#000000" x1="219" x2="219" y1="370" y2="10"/>
<line opacity="0.1" stroke="#000000" x1="221" x2="221" y1="370" y2="10"/>
<line opacity="0.1" stroke="#000000" x1="224" x2="224" y1="370" y2="10"/>
<line opacity="0.1" stroke="#000000" x1="227" x2="227" y1="370" y2="10"/>
<line opacity="0.1" stroke="#000000" x1="229" x2="229" y1="370" y2="10"/>
<line opacity="0.1" stroke="#000000" x1="232" x2="232" y1="370" y2="10"/>
<line opacity="0.1" stroke="#000000" x1="234" x2="234" y1="370" y2="10"/>
<line opacity="0.1" stroke="#000000" x1="237" x2="237" y1="370" y2="10"/>
<line opacity="0.1" stroke="#000000" x1="240" x2="240" y1="370" y2="10"/>
<line opacity="0.1" stroke="#000000" x1="242" x2="242" y1="370" y2="10"/>
<line opacity="0.1" stroke="#000000" x1="245" x2="245" y1="370" y2="10"/>
<line opacity="0.1" stroke="#000000" x1="247" x2="247" y1="370" y2="10"/>
<line opacity="0.1" stroke="#000000" x1="250" x2="250" y1="370" y2="10"/>
<line opacity="0.1" stroke="#000000" x1="253" x2="253" y1="370" y2="10"/>
<line opacity="0.1" stroke="#000000" x1="255" x2="255" y1="370" y2="10"/>
<line opacity="0.1" stroke="#000000" x1="258" x2="258" y1="370" y2="10"/>
<line opacity="0.1" stroke="#000000" x1="260" x2="260" y1="370" y2="10"/>
<line opacity="0.1" stroke="#000000" x1="263" x2="263" y1="370" y2="10"/>
<line opacity="0.1" stroke="#000000" x1="266" x2="266" y1="370" y2="10"/>
<line opacity="0.1" stroke="#000000" x1="268" x2="268" y1="370" y2="10"/>
<line opacity="0.1" stroke="#000000" x1="271" x2="271" y1="370" y2="10"/>
<line opacity="0.1" stroke="#000000" x1="273" x2="273" y1="370" y2="10"/>
<line opacity="0.1" stroke="#000000" x1="276" x2="276" y1="370" y2="10"/>
<line opacity="0.1" stroke="#000000" x1="279" x2="279" y1="370" y2="10"/>
<line opacity="0.1" stroke="#000000" x1="281" x2="281" y1="370" y2="10"/>
<line opacity="0.1" stroke="#000000" x1="284" x2="284" y1="370" y2="10"/>
<line opacity="0.1" stroke="#000000" x1="286" x2="286" y1="370" y2="10"/>
<line opacity="0.1" stroke="#000000" x1="289" x2="289" y1="370" y2="10"/>
<line opacity="0.1" stroke="#000000" x1="292" x2="292" y1="370" y2="10"/>
<line opacity="0.1" stroke="#000000" x1="294" x2="294" y1="370" y2="10"/>
<line opacity="0.1" stroke="#000000" x1="297" x2="297" y1="370" y2="10"/>
<line opacity="0.1" stroke="#000000" x1="299" x2="299" y1="370" y2="10"/>
<line opacity="0.1" stroke="#000000" x1="302" x2="302" y1="370" y2="10"/>
<line opacity="0.1" stroke="#000000" x1="305" x2="305" y1="370" y2="10"/>
<line opacity="0.1" stroke="#000000" x1="307" x2="307" y1="370" y2="10"/>
<line opacity="0.1" stroke="#000000" x1="310" x2="310" y1="370" y2="10"/>
<line opacity="0.1" stroke="#000000" x1="312" x2="312" y1="370" y2="10"/>
<line opacity="0.1" stroke="#000000" x1="315" x2="315" y1="370" y2="10"/>
<line opacity="0.1" stroke="#000000" x1="318" x2="318" y1="370" y2="10"/>
<line opacity="0.1" stroke="#000000" x1="320" x2="320" y1="370" y2="10"/>
<line opacity="0.1" stroke="#000000" x1="323" x2="323" y1="370" y2="10"/>
<line opacity="0.1" stroke="#000000" x1="325" x2="325" y1="370" y2="10"/>
<line opacity="0.1" stroke="#000000" x1="328" x2="328" y1="370" y2="10"/>
<line opacity="0.1" stroke="#000000" x1="331" x2="331" y1="370" y2="10"/>
<line opacity="0.1" stroke="#000000" x1="333" x2="333" y1="370" y2="10"/>
<line opacity="0.1" stroke="#000000" x1="336" x2="336" y1="370" y2="10"/>
<line opacity="0.1" stroke="#000000" x1="338" x2="338" y1="370" y2="10"/>
<line opacity="0.1" stroke="#000000" x1="341" x2="341" y1="370" y2="10"/>
<line opacity="0.1" stroke="#000000" x1="344" x2="344" y1="370" y2="10"/>
<line opacity="0.1" stroke="#000000" x1="346" x2="346" y1="370" y2="10"/>
<line opacity="0.1" stroke="#000000" x1="349" x2="349" y1="370" y2="10"/>
<line opacity="0.1" stroke="#000000" x1="351" x2="351" y1="370" y2="10"/>
<line opacity="0.1" stroke="#000000" x1="354" x2="354" y1="370" y2="10"/>
<line opacity="0.1" stroke="#000000" x1="357" x2="357" y1="370" y2="10"/>
<line opacity="0.1" stroke="#000000" x1="359" x2="359" y1="370" y2="10"/>
<line opacity="0.1" stroke="#000000" x1="362" x2="362" y1="370" y2="10"/>
<line opacity="0.1" stroke="#000000" x1="364" x2="364" y1="370" y2="10"/>
<line opacity="0.1" stroke="#000000" x1="367" x2="367" y1="370" y2="10"/>
<line opacity="0.1" stroke="#000000" x1="370" x2="370" y1="370" y2="10"/>
<line opacity="0.1" stroke="#000000" x1="372" x2="372" y1="370" y2="10"/>
<line opacity="0.1" stroke="#000000" x1="375" x2="375" y1="370" y2="10"/>
<line opacity="0.1" stroke="#000000" x1="377" x2="377" y1="370" y2="10"/>
<line opacity="0.1" stroke="#000000" x1="380" x2="380" y1="370" y2="10"/>
<line opacity="0.1" stroke="#000000" x1="383" x2="383" y1="370" y2="10"/>
<line opacity="0.1" stroke="#000000" x1="385" x2="385" y1="370" y2="10"/>
<line opacity="0.1" stroke="#000000" x1="388" x2="388" y1="370" y2="10"/>
<line opacity="0.1" stroke="#000000" x1="390" x2="390" y1="370" y2="10"/>
<line opacity="0.1" stroke="#000000" x1="393" x2="393" y1="370" y2="10"/>
<line opacity="0.1" stroke="#000000" x1="396" x2="396" y1="370" y2="10"/>
<line opacity="0.1" stroke="#000000" x1="398" x2="398" y1="370" y2="10"/>
<line opacity="0.1" stroke="#000000" x1="401" x2="401" y1="370" y2="10"/>
<line opacity="0.1" stroke="#000000" x1="403" x2="403" y1="370" y2="10"/>
<line opacity="0.1" stroke="#000000" x1="406" x2="406" y1="370" y2="10"/>
<line opacity="0.1" stroke="#000000" x1="409" x2="409" y1="370" y2="10"/>
<line opacity="0.1" stroke="#000000" x1="411" x2="411" y1="370" y2="10"/>
<line opacity="0.1" stroke="#000000" x1="414" x2="414" y1="370" y2="10"/>
<line opacity="0.1" stroke="#000000" x1="416" x2="416" y1="370" y2="10"/>
<line opacity="0.1" stroke="#000000" x1="419" x2="419" y1="370" y2="10"/>
<line opacity="0.1" stroke="#000000" x1="422" x2="422" y1="370" y2="10"/>
<line opacity="0.1" stroke="#000000" x1="424" x2="424" y1="370" y2="10"/>
<line opacity="0.1" stroke="#000000" x1="427" x2="427" y1="370" y2="10"/>
<line opacity="0.1" stroke="#000000" x1="429" x2="429" y1="370" y2="10"/>
<line opacity="0.1" stroke="#000000" x1="432" x2="432" y1="370" y2="10"/>
<line opacity="0.1" stroke="#000000" x1="435" x2="435" y1="370" y2="10"/>
<line opacity="0.1" stroke="#000000" x1="437" x2="437" y1="370" y2="10"/>
<line opacity="0.1" stroke="#000000" x1="440" x2="440" y1="370" y2="10"/>
<line opacity="0.1" stroke="#000000" x1="442" x2="442" y1="370" y2="10"/>
<line opacity="0.1" stroke="#000000" x1="445" x2="445" y1="370" y2="10"/>
<line opacity="0.1" stroke="#000000" x1="448" x2="448" y1="370" y2="10"/>
<line opacity="0.1" stroke="#000000" x1="450" x2="450" y1="370" y2="10"/>
<line opacity="0.1" stroke="#000000" x1="453" x2="453" y1="370" y2="10"/>
<line opacity="0.1" stroke="#000000" x1="455" x2="455" y1="370" y2="10"/>
<line opacity="0.1" stroke="#000000" x1="458" x2="458" y1="370" y2="10"/>
<line opacity="0.1" stroke="#000000" x1="461" x2="461" y1="370" y2="10"/>
<line opacity="0.1" stroke="#000000" x1="463" x2="463" y1="370" y2="10"/>
<line opacity="0.1" stroke="#000000" x1="466" x2="466" y1="370" y2="10"/>
<line opacity="0.1" stroke="#000000" x1="468" x2="468" y1="370" y2="10"/>
<line opacity="0.1" stroke="#000000" x1="471" x2="471" y1="370" y2="10"/>
<line opacity="0.1" stroke="#000000" x1="474" x2="474" y1="370" y2="10"/>
<line opacity="0.1" stroke="#000000" x1="476" x2="476" y1="370" y2="10"/>
<line opacity="0.1" stroke="#000000" x1="479" x2="479" y1="370" y2="10"/>
<line opacity="0.1" stroke="#000000" x1="481" x2="481" y1="370" y2="10"/>
<line opacity="0.1" stroke="#000000" x1="484" x2="484" y1="370" y2="10"/>
<line opacity="0.1" stroke="#000000" x1="487" x2="487" y1="370" y2="10"/>
<line opacity="0.1" stroke="#000000" x1="489" x2="489" y1="370" y2="10"/>
<line opacity="0.1" stroke="#000000" x1="492" x2="492" y1="370" y2="10"/>
<line opacity="0.1" stroke="#000000" x1="494" x2="494" y1="370" y2="10"/>
<line opacity="0.1" stroke="#000000" x1="497" x2="497" y1="370" y2="10"/>
<line opacity="0.1" stroke="#000000" x1="500" x2="500" y1="370" y2="10"/>
<line opacity="0.1" stroke="#000000" x1="502" x2="502" y1="370" y2="10"/>
<line opacity="0.1" stroke="#000000" x1="505" x2="505" y1="370" y2="10"/>
<line opacity="0.1" stroke="#000000" x1="507" x2="507" y1="370" y2="10"/>
<line opacity="0.1" stroke="#000000" x1="510" x2="510" y1="370" y2="10"/>
<line opacity="0.1" stroke="#000000" x1="513" x2="513" y1="370" y2="10"/>
<line opacity="0.1" stroke="#000000" x1="515" x2="515" y1="370" y2="10"/>
<line opacity="0.1" stroke="#000000" x1="518" x2="518" y1="370" y2="10"/>
<line opacity="0.1" stroke="#000000" x1="520" x2="520" y1="370" y2="10"/>
<line opacity="0.1" stroke="#000000" x1="523" x2="523" y1="370" y2="10"/>
<line opacity="0.1" stroke="#000000" x1="526" x2="526" y1="370" y2="10"/>
<line opacity="0.1" stroke="#000000" x1="528" x2="528" y1="370" y2="10"/>
<line opacity="0.1" stroke="#000000" x1="531" x2="531" y1="370" y2="10"/>
<line opacity="0.1" stroke="#000000" x1="533" x2="533" y1="370" y2="10"/>
<line opacity="0.1" stroke="#000000" x1="536" x2="536" y1="370" y2="10"/>
<line opacity="0.1" stroke="#000000" x1="539" x2="539" y1="370" y2="10"/>
<line opacity="0.1" stroke="#000000" x1="541" x2="541" y1="370" y2="10"/>
<line opacity="0.1" stroke="#000000" x1="544" x2="544" y1="370" y2="10"/>
<line opacity="0.1" stroke="#000000" x1="546" x2="546" y1="370" y2="10"/>
<line opacity="0.1" stroke="#000000" x1="549" x2="549" y1="370" y2="10"/>
<line opacity="0.1" stroke="#000000" x1="552" x2="552" y1="370" y2="10"/>
<line opacity="0.1" stroke="#000000" x1="554" x2="554" y1="370" y2="10"/>
<line opacity="0.1" stroke="#000000" x1="557" x2="557" y1="370" y2="10"/>
<line opacity="0.1" stroke="#000000" x1="559" x2="559" y1="370" y2="10"/>
<line opacity="0.1" stroke="#000000" x1="562" x2="562" y1="370" y2="10"/>
<line opacity="0.1" stroke="#000000" x1="565" x2="565" y1="370" y2="10"/>
<line opacity="0.1" stroke="#000000" x1="567" x2="567" y1="370" y2="10"/>
<line opacity="0.1" stroke="#000000" x1="570" x2="570" y1="370" y2="10"/>
<line opacity="0.1" stroke="#000000" x1="572" x2="572" y1="370" y2="10"/>
<line opacity="0.1" stroke="#000000" x1="575" x2="575" y1="370" y2="10"/>
<line opacity="0.1" stroke="#000000" x1="578" x2="578" y1="370" y2="10"/>
<line opacity="0.1" stroke="#000000" x1="580" x2="580" y1="370" y2="10"/>
<line opacity="0.1" stroke="#000000" x1="583" x2="583" y1="370" y2="10"/>
<line opacity="0.1" stroke="#000000" x1="585" x2="585" y1="370" y2="10"/>
<line opacity="0.1" stroke="#000000" x1="588" x2="588" y1="370" y2="10"/>
<line opacity="0.1" stroke="#000000" x1="591" x2="591" y1="370" y2="10"/>
<line opacity="0.1" stroke="#000000" x1="593" x2="593" y1="370" y2="10"/>
<line opacity="0.1" stroke="#000000" x1="596" x2="596" y1="370" y2="10"/>
<line opacity="0.1" stroke="#000000" x1="598" x2="598" y1="370" y2="10"/>
<line opacity="0.1" stroke="#000000" x1="601" x2="601" y1="370" y2="10"/>
<line opacity="0.1" stroke="#000000" x1="604" x2="604" y1="370" y2="10"/>
<line opacity="0.1" stroke="#000000" x1="606" x2="606" y1="370" y2="10"/>
<line opacity="0.1" stroke="#000000" x1="609" x2="609" y1="370" y2="10"/>
<line opacity="0.1" stroke="#000000" x1="611" x2="611" y1="370" y2="10"/>
<line opacity="0.1" stroke="#000000" x1="614" x2="614" y1="370" y2="10"/>
<line opacity="0.1" stroke="#000000" x1="617" x2="617" y1="370" y2="10"/>
<line opacity="0.1" stroke="#000000" x1="619" x2="619" y1="370" y2="10"/>
<line opacity="0.1" stroke="#000000" x1="622" x2="622" y1="370" y2="10"/>
<line opacity="0.1" stroke="#000000" x1="624" x2="624" y1="370" y2="10"/>
<line opacity="0.1" stroke="#000000" x1="627" x2="627" y1="370" y2="10"/>
<line opacity="0.1" stroke="#000000" x1="630" x2="630" y1="370" y2="10"/>
<line opacity="0.1" stroke="#000000" x1="110" x2="630" y1="366" y2="366"/>
<line opacity="0.1" stroke="#000000" x1="110" x2="630" y1="362" y2="362"/>
<line opacity="0.1" stroke="#000000" x1="110" x2="630" y1="359" y2="359"/>
<line opacity="0.1" stroke="#000000" x1="110" x2="630" y1="355" y2="355"/>
<line opacity="0.1" stroke="#000000" x1="110" x2="630" y1="352" y2="352"/>
<line opacity="0.1" stroke="#000000" x1="110" x2="630" y1="348" y2="348"/>
<line opacity="0.1" stroke="#000000" x1="110" x2="630" y1="344" y2="344"/>
<line opacity="0.1" stroke="#000000" x1="110" x2="630" y1="341" y2="341"/>
<line opacity="0.1" stroke="#000000" x1="110" x2="630" y1="337" y2="337"/>
<line opacity="0.1" stroke="#000000" x1="110" x2="630" y1="334" y2="334"/>
<line opacity="0.1" stroke="#000000" x1="110" x2="630" y1="330" y2="330"/>
<line opacity="0.1" stroke="#000000" x1="110" x2="630" y1="326" y2="326"/>
<line opacity="0.1" stroke="#000000" x1="110" x2="630" y1="323" y2="323"/>
<line opacity="0.1" stroke="#000000" x1="110" x2="630" y1="319" y2="319"/>
<line opacity="0.1" stroke="#000000" x1="110" x2="630" y1="316" y2="316"/>
<line opacity="0.1" stroke="#000000" x1="110" x2="630" y1="312" y2="312"/>
<line opacity="0.1" stroke="#000000" x1="110" x2="630" y1="308" y2="308"/>
<line opacity="0.1" stroke="#000000" x1="110" x2="630" y1="305" y2="305"/>
<line opacity="0.1" stroke="#000000" x1="110" x2="630" y1="301" y2="301"/>
<line opacity="0.1" stroke="#000000" x1="110" x2="630" y1="298" y2="298"/>
<line opacity="0.1" stroke="#000000" x1="110" x2="630" y1="294" y2="294"/>
<line opacity="0.1" stroke="#000000" x1="110" x2="630" y1="290" y2="290"/>
<line opacity="0.1" stroke="#000000" x1="110" x2="630" y1="287" y2="287"/>
<line opacity="0.1" stroke="#000000" x1="110" x2="630" y1="283" y2="283"/>
<line opacity="0.1" stroke="#000000" x1="110" x2="630" y1="280" y2="280"/>
<line opacity="0.1" stroke="#000000" x1="110" x2="630" y1="276" y2="276"/>
<line opacity="0.1" stroke="#000000" x1="110" x2="630" y1="272" y2="272"/>
<line opacity="0.1" stroke="#000000" x1="110" x2="630" y1="269" y2="269"/>
<line opacity="0.1" stroke="#000000" x1="110" x2="630" y1="265" y2="265"/>
<line opacity="0.1" stroke="#000000" x1="110" x2="630" y1="262" y2="262"/>
<line opacity="0.1" stroke="#000000" x1="110" x2="630" y1="258" y2="258"/>
<line opacity="0.1" stroke="#000000" x1="110" x2="630" y1="254" y2="254"/>
<line opacity="0.1" stroke="#000000" x1="110" x2="630" y1="251" y2="251"/>
<line opacity="0.1" stroke="#000000" x1="110" x2="630" y1="247" y2="247"/>
<line opacity="0.1" stroke="#000000" x1="110" x2="630" y1="244" y2="244"/>
<line opacity="0.1" stroke="#000000" x1="110" x2="630" y1="240" y2="240"/>
<line opacity="0.1" stroke="#000000" x1="110" x2="630" y1="236" y2="236"/>
<line opacity="0.1" stroke="#000000" x1="110" x2="630" y1="233" y2="233"/>
<line opacity="0.1" stroke="#000000" x1="110" x2="630" y1="229" y2="229"/>
<line opacity="0.1" stroke="#000000" x1="110" x2="630" y1="226" y2="226"/>
<line opacity="0.1" stroke="#000000" x1="110" x2="630" y1="222" y2="222"/>
<line opacity="0.1" stroke="#000000" x1="110" x2="630" y1="218" y2="218"/>
<line opacity="0.1" stroke="#000000" x1="110" x2="630" y1="215" y2="215"/>
<line opacity="0.1" stroke="#000000" x1="110" x2="630" y1="211" y2="211"/>
<line opacity="0.1" stroke="#000000" x1="110" x2="630" y1="208" y2="208"/>
<line opacity="0.1" stroke="#000000" x1="110" x2="630" y1="204" y2="204"/>
<line opacity="0.1" stroke="#000000" x1="110" x2="630" y1="200" y2="200"/>
<line opacity="0.1" stroke="#000000" x1="110" x2="630" y1="197" y2="197"/>
<line opacity="0.1" stroke="#000000" x1="110" x2="630" y1="193" y2="193"/>
<line opacity="0.1" stroke="#000000" x1="110" x2="630" y1="190" y2="190"/>
<line opacity="0.1" stroke="#000000" x1="110" x2="630" y1="186" y2="186"/>
<line opacity="0.1" stroke="#000000" x1="110" x2="630" y1="182" y2="182"/>
<line opacity="0.1" stroke="#000000" x1="110" x2="630" y1="179" y2="179"/>
<line opacity="0.1" stroke="#000000" x1="110" x2="630" y1="175" y2="175"/>
<line opacity="0.1" stroke="#000000" x1="110" x2="630" y1="172" y2="172"/>
<line opacity="0.1" stroke="#000000" x1="110" x2="630" y1="168" y2="168"/>
<line opacity="0.1" stroke="#000000" x1="110" x2="630" y1="164" y2="164"/>
<line opacity="0.1" stroke="#000000" x1="110" x2="630" y1="161" y2="161"/>
<line opacity="0.1" stroke="#000000" x1="110" x2="630" y1="157" y2="157"/>
<line opacity="0.1" stroke="#000000" x1="110" x2="630" y1="154" y2="154"/>
<line opacity="0.1" stroke="#000000" x1="110" x2="630" y1="150" y2="150"/>
<line opacity="0.1" stroke="#000000" x1="110" x2="630" y1="146" y2="146"/>
<line opacity="0.1" stroke="#000000" x1="110" x2="630" y1="143" y2="143"/>
<line opacity="0.1" stroke="#000000" x1="110" x2="630" y1="139" y2="139"/>
<line opacity="0.1" stroke="#000000" x1="110" x2="630" y1="136" y2="136"/>
<line opacity="0.1" stroke="#000000" x1="110" x2="630" y1="132" y2="132"/>
<line opacity="0.1" stroke="#000000" x1="110" x2="630" y1="128" y2="128"/>
<line opacity="0.1" stroke="#000000" x1="110" x2="630" y1="125" y2="125"/>
<line opacity="0.1" stroke="#000000" x1="110" x2="630" y1="121" y2="121"/>
<line opacity="0.1" stroke="#000000" x1="110" x2="630" y1="118" y2="118"/>
<line opacity="0.1" stroke="#000000" x1="110" x2="630" y1="114" y2="114"/>
<line opacity="0.1" stroke="#000000" x1="110" x2="630" y1="110" y2="110"/>
<line opacity="0.1" stroke="#000000" x1="110" x2="630" y1="107" y2="107"/>
<line opacity="0.1" stroke="#000000" x1="110" x2="630" y1="103" y2="103"/>
<line opacity="0.1" stroke="#000000" x1="110" x2="630" y1="100" y2="100"/>
<line opacity="0.1" stroke="#000000" x1="110" x2="630" y1="96" y2="96"/>
<line opacity="0.1" stroke="#000000" x1="110" x2="630" y1="92" y2="92"/>
<line opacity="0.1" stroke="#000000" x1="110" x2="630" y1="89" y2="89"/>
<line opacity="0.1" stroke="#000000" x1="110" x2="630" y1="85" y2="85"/>
<line opacity="0.1" stroke="#000000" x1="110" x2="630" y1="82" y2="82"/>
<line opacity="0.1" stroke="#000000" x1="110" x2="630" y1="78" y2="78"/>
<line opacity="0.1" stroke="#000000" x1="110" x2="630" y1="74" y2="74"/>
<line opacity="0.1" stroke="#000000" x1="110" x2="630" y1="71" y2="71"/>
<line opacity="0.1" stroke="#000000" x1="110" x2="630" y1="67" y2="67"/>
<line opacity="0.1" stroke="#000000" x1="110" x2="630" y1="64" y2="64"/>
<line opacity="0.1" stroke="#000000" x1="110" x2="630" y1="60" y2="60"/>
<line opacity="0.1" stroke="#000000" x1="110" x2="630" y1="56" y2="56"/>
<line opacity="0.1" stroke="#000000" x1="110" x2="630" y1="53" y2="53"/>
<line opacity="0.1" stroke="#000000" x1="110" x2="630" y1="49" y2="49"/>
<line opacity="0.1" stroke="#000000" x1="110" x2="630" y1="46" y2="46"/>
<line opacity="0.1" stroke="#000000" x1="110" x2="630" y1="42" y2="42"/>
<line opacity="0.1" stroke="#000000" x1="110" x2="630" y1="38" y2="38"/>
<line opacity="0.1" stroke="#000000" x1="110" x2="630" y1="35" y2="35"/>
<line opacity="0.1" stroke="#000000" x1="110" x2="630" y1="31" y2="31"/>
<line opacity="0.1" stroke="#000000" x1="110" x2="630" y1="28" y2="28"/>
<line opacity="0.1" stroke="#000000" x1="110" x2="630" y1="24" y2="24"/>
<line opacity="0.1" stroke="#000000" x1="110" x2="630" y1="20" y2="20"/>
<line opacity="0.1" stroke="#000000" x1="110" x2="630" y1="17" y2="17"/>
<line opacity="0.1" stroke="#000000" x1="110" x2="630" y1="13" y2="13"/>
<line opacity="0.1" stroke="#000000" x1="110" x2="630" y1="10" y2="10"/>
<line opacity="0.2" stroke="#000000" x1="136" x2="136" y1="370" y2="10"/>
<line opacity="0.2" stroke="#000000" x1="162" x2="162" y1="370" y2="10"/>
<line opacity="0.2" stroke="#000000" x1="188" x2="188" y1="370" y2="10"/>
<line opacity="0.2" stroke="#000000" x1="214" x2="214" y1="370" y2="10"/>
<line opacity="0.2" stroke="#000000" x1="240" x2="240" y1="370" y2="10"/>
<line opacity="0.2" stroke="#000000" x1="266" x2="266" y1="370" y2="10"/>
<line opacity="0.2" stroke="#000000" x1="292" x2="292" y1="370" y2="10"/>
<line opacity="0.2" stroke="#000000" x1="318" x2="318" y1="370" y2="10"/>
<line opacity="0.2" stroke="#000000" x1="344" x2="344" y1="370" y2="10"/>
<line opacity="0.2" stroke="#000000" x1="370" x2="370" y1="370" y2="10"/>
<line opacity="0.2" stroke="#000000" x1="396" x2="396" y1="370" y2="10"/>
<line opacity="0.2" stroke="#000000" x1="422" x2="422" y1="370" y2="10"/>
<line opacity="0.2" stroke="#000000" x1="448" x2="448" y1="370" y2="10"/>
<line opacity="0.2" stroke="#000000" x1="474" x2="474" y1="370" y2="10"/>
<line opacity="0.2" stroke="#000000" x1="500" x2="500" y1="370" y2="10"/>
<line opacity="0.2" stroke="#000000" x1="526" x2="526" y1="370" y2="10"/>
<line opacity="0.2" stroke="#000000" x1="552" x2="552" y1="370" y2="10"/>
<line opacity="0.2" stroke="#000000" x1="578" x2="578" y1="370" y2="10"/>
<line opacity="0.2" stroke="#000000" x1="604" x2="604" y1="370" y2="10"/>
<line opacity="0.2" stroke="#000000" x1="630" x2="630" y1="370" y2="10"/>
<line opacity="0.2" stroke="#000000" x1="110" x2="630" y1="334" y2="334"/>
<line opacity="0.2" stroke="#000000" x1="110" x2="630" y1="298" y2="298"/>
<line opacity="0.2" stroke="#000000" x1="110" x2="630" y1="262" y2="262"/>
<line opacity="0.2" stroke="#000000" x1="110" x2="630" y1="226" y2="226"/>
<line opacity="0.2" stroke="#000000" x1="110" x2="630" y1="190" y2="190"/>
<line opacity="0.2" stroke="#000000" x1="110" x2="630" y1="154" y2="154"/>
<line opacity="0.2" stroke="#000000" x1="110" x2="630" y1="118" y2="118"/>
<line opacity="0.2" stroke="#000000" x1="110" x2="630" y1="82" y2="82"/>
<line opacity="0.2" stroke="#000000" x1="110" x2="630" y1="46" y2="46"/>
<line opacity="0.2" stroke="#000000" x1="110" x2="630" y1="10" y2="10"/>
<polyline fill="none" opacity="1" points="110,370 630,370 " stroke="#000000"/>
<polyline fill="none" opacity="1" points="136,370 136,375 " stroke="#000000"/>
<text fill="#000000" font-famliy="Arial" font-size="12" opacity="1" x="129" y="388">
1.0
</text>
<polyline fill="none" opacity="1" points="162,370 162,375 " stroke="#000000"/>
<text fill="#000000" font-famliy="Arial" font-size="12" opacity="1" x="155" y="388">
2.0
</text>
<polyline fill="none" opacity="1" points="188,370 188,375 " stroke="#000000"/>
<text fill="#000000" font-famliy="Arial" font-size="12" opacity="1" x="181" y="388">
3.0
</text>
<polyline fill="none" opacity="1" points="214,370 214,375 " stroke="#000000"/>
<text fill="#000000" font-famliy="Arial" font-size="12" opacity="1" x="207" y="388">
4.0
</text>
<polyline fill="none" opacity="1" points="240,370 240,375 " stroke="#000000"/>
<text fill="#000000" font-famliy="Arial" font-size="12" opacity="1" x="233" y="388">
5.0
</text>
<polyline fill="none" opacity="1" points="266,370 266,375 " stroke="#000000"/>
<text fill="#000000" font-famliy="Arial" font-size="12" opacity="1" x="259" y="388">
6.0
</text>
<polyline fill="none" opacity="1" points="292,370 292,375 " stroke="#000000"/>
<text fill="#000000" font-famliy="Arial" font-size="12" opacity="1" x="285" y="388">
7.0
</text>
<polyline fill="none" opacity="1" points="318,370 318,375 " stroke="#000000"/>
<text fill="#000000" font-famliy="Arial" font-size="12" opacity="1" x="311" y="388">
8.0
</text>
<polyline fill="none" opacity="1" points="344,370 344,375 " stroke="#000000"/>
<text fill="#000000" font-famliy="Arial" font-size="12" opacity="1" x="337" y="388">
9.0
</text>
<polyline fill="none" opacity="1" points="370,370 370,375 " stroke="#000000"/>
<text fill="#000000" font-famliy="Arial" font-size="12" opacity="1" x="360" y="388">
10.0
</text>
<polyline fill="none" opacity="1" points="396,370 396,375 " stroke="#000000"/>
<text fill="#000000" font-famliy="Arial" font-size="12" opacity="1" x="386" y="388">
11.0
</text>
<polyline fill="none" opacity="1" points="422,370 422,375 " stroke="#000000"/>
<text fill="#000000" font-famliy="Arial" font-size="12" opacity="1" x="412" y="388">
12.0
</text>
<polyline fill="none" opacity="1" points="448,370 448,375 " stroke="#000000"/>
<text fill="#000000" font-famliy="Arial" font-size="12" opacity="1" x="438" y="388">
13.0
</text>
<polyline fill="none" opacity="1" points="474,370 474,375 " stroke="#000000"/>
<text fill="#000000" font-famliy="Arial" font-size="12" opacity="1" x="464" y="388">
14.0
</text>
<polyline fill="none" opacity="1" points="500,370 500,375 " stroke="#000000"/>
<text fill="#000000" font-famliy="Arial" font-size="12" opacity="1" x="490" y="388">
15.0
</text>
<polyline fill="none" opacity="1" points="526,370 526,375 " stroke="#000000"/>
<text fill="#000000" font-famliy="Arial" font-size="12" opacity="1" x="516" y="388">
16.0
</text>
<polyline fill="none" opacity="1" points="552,370 552,375 " stroke="#000000"/>
<text fill="#000000" font-famliy="Arial" font-size="12" opacity="1" x="542" y="388">
17.0
</text>
<polyline fill="none" opacity="1" points="578,370 578,375 " stroke="#000000"/>
<text fill="#000000" font-famliy="Arial" font-size="12" opacity="1" x="568" y="388">
18.0
</text>
<polyline fill="none" opacity="1" points="604,370 604,375 " stroke="#000000"/>
<text fill="#000000" font-famliy="Arial" font-size="12" opacity="1" x="594" y="388">
19.0
</text>
<polyline fill="none" opacity="1" points="110,10 110,370 " stroke="#000000"/>
<text fill="#000000" font-famliy="Arial" font-size="12" opacity="1" x="43" y="338">
10000000.0
</text>
<polyline fill="none" opacity="1" points="105,334 110,334 " stroke="#000000"/>
<text fill="#000000" font-famliy="Arial" font-size="12" opacity="1" x="43" y="302">
20000000.0
</text>
<polyline fill="none" opacity="1" points="105,298 110,298 " stroke="#000000"/>
<text fill="#000000" font-famliy="Arial" font-size="12" opacity="1" x="43" y="266">
30000000.0
</text>
<polyline fill="none" opacity="1" points="105,262 110,262 " stroke="#000000"/>
<text fill="#000000" font-famliy="Arial" font-size="12" opacity="1" x="43" y="230">
40000000.0
</text>
<polyline fill="none" opacity="1" points="105,226 110,226 " stroke="#000000"/>
<text fill="#000000" font-famliy="Arial" font-size="12" opacity="1" x="43" y="194">
50000000.0
</text>
<polyline fill="none" opacity="1" points="105,190 110,190 " stroke="#000000"/>
<text fill="#000000" font-famliy="Arial" font-size="12" opacity="1" x="43" y="158">
60000000.0
</text>
<polyline fill="none" opacity="1" points="105,154 110,154 " stroke="#000000"/>
<text fill="#000000" font-famliy="Arial" font-size="12" opacity="1" x="43" y="122">
70000000.0
</text>
<polyline fill="none" opacity="1" points="105,118 110,118 " stroke="#000000"/>
<text fill="#000000" font-famliy="Arial" font-size="12" opacity="1" x="43" y="86">
80000000.0
</text>
<polyline fill="none" opacity="1" points="105,82 110,82 " stroke="#000000"/>
<text fill="#000000" font-famliy="Arial" font-size="12" opacity="1" x="43" y="50">
90000000.0
</text>
<polyline fill="none" opacity="1" points="105,46 110,46 " stroke="#000000"/>
<text fill="#000000" font-famliy="Arial" font-size="12" opacity="1" x="37" y="14">
100000000.0
</text>
<polyline fill="none" opacity="1" points="105,10 110,10 " stroke="#000000"/>
<polyline fill="none" opacity="1" points="110,330 136,326 162,322 188,318 214,314 240,310 266,306 292,303 318,299 344,296 370,294 396,292 422,290 448,289 474,288 500,288 526,289 552,290 578,292 604,294 " stroke="#FF0000"/>
<polyline fill="none" opacity="1" points="110,366 136,362 162,358 188,354 214,350 240,346 266,342 292,339 318,335 344,332 370,330 396,328 422,326 448,325 474,324 500,324 526,325 552,326 578,328 604,330 " stroke="#0000FF"/>
<polyline fill="none" opacity="1" points="110,369 136,368 162,367 188,366 214,366 240,365 266,364 292,363 318,363 344,362 370,362 396,361 422,361 448,361 474,360 500,360 526,361 552,361 578,361 604,362 " stroke="#0000FF"/>
<polyline fill="none" opacity="1" points="110,370 136,369 162,369 188,369 214,369 240,368 266,368 292,368 318,367 344,367 370,367 396,366 422,366 448,366 474,366 500,366 526,366 552,366 578,366 604,367 " stroke="#00FF00"/>
</svg>